<svg width="26" height="40" viewBox="0 0 26 40" fill="none" xmlns="http://www.w3.org/2000/svg">
<path d="M12.9731 0C8.49989 0 4.86498 3.63492 4.86498 8.10811V20C4.86498 24.4732 8.49989 28.1081 12.9731 28.1081C17.4463 28.1081 21.0812 24.4732 21.0812 20V8.10811C21.0812 3.63492 17.4463 0 12.9731 0ZM1.09809 14.5946C0.520768 14.5854 -0.00891856 15.1152 0.000113873 15.6925V20.0169C0.000113873 26.8233 5.22711 32.3933 11.892 32.9392V37.8378H7.56768C6.97062 37.8378 6.4866 38.3218 6.4866 38.9189C6.4866 39.516 6.97062 40 7.56768 40H18.3785C18.9756 40 19.4596 39.516 19.4596 38.9189C19.4596 38.3218 18.9756 37.8378 18.3785 37.8378H14.0542V32.9392C20.7191 32.3933 25.9461 26.8233 25.9461 20.0169V15.6925C25.9541 15.1214 25.4362 14.596 24.865 14.596C24.2938 14.596 23.7758 15.1214 23.7839 15.6925V20.0169C23.7839 26.0247 18.981 30.8277 12.9731 30.8277C6.96519 30.8277 2.16228 26.0247 2.16228 20.0169V15.6925C2.17114 15.1265 1.66414 14.6034 1.09809 14.5946Z" fill="#7BD49D"/>
</svg>
