<svg width="197" height="202" viewBox="0 0 197 202" fill="none" xmlns="http://www.w3.org/2000/svg">
<path d="M0.5 23.0998V100.45C0.5 112.931 10.6183 123.05 23.0998 123.05C35.5814 123.05 45.6997 112.931 45.6997 100.45V23.0998C45.6997 10.6183 35.5814 0.5 23.0998 0.5C10.6183 0.5 0.5 10.6183 0.5 23.0998Z" fill="#999DA1" stroke="white"/>
<path d="M66.8008 122.549V122.669L66.8551 122.776C67.8707 124.773 68.8858 126.597 69.9298 128.471C69.9298 128.471 69.9299 128.471 69.9299 128.471L69.9402 128.49C74.5836 136.831 79.9078 146.395 88.9199 177.936C91.7017 187.673 95.8925 193.996 100.666 197.621C105.449 201.252 110.779 202.143 115.749 201.078C125.648 198.957 134.1 189.085 134.1 177.799V134.099H173.812C187.778 134.099 198.4 121.56 196.105 107.784L181.371 19.3844C179.555 8.48711 170.126 0.5 159.078 0.5H89.4006C76.9191 0.5 66.8008 10.6183 66.8008 23.0998V122.549Z" fill="#999DA1" stroke="white"/>
</svg>
