<svg width="130" height="200" viewBox="0 0 130 200" fill="none" xmlns="http://www.w3.org/2000/svg">
<path d="M64.8654 0C42.4995 0 24.3249 18.1746 24.3249 40.5405V100C24.3249 122.366 42.4995 140.541 64.8654 140.541C87.2314 140.541 105.406 122.366 105.406 100V40.5405C105.406 18.1746 87.2314 0 64.8654 0ZM5.49043 72.973C2.60384 72.927 -0.0445928 75.5762 0.000569364 78.4627V100.084C0.000569364 134.116 26.1355 161.967 59.46 164.696V189.189H37.8384C34.8531 189.189 32.433 191.609 32.433 194.595C32.433 197.58 34.8531 200 37.8384 200H91.8925C94.8778 200 97.2979 197.58 97.2979 194.595C97.2979 191.609 94.8778 189.189 91.8925 189.189H70.2708V164.696C103.595 161.967 129.73 134.116 129.73 100.084V78.4627C129.771 75.607 127.181 72.9802 124.325 72.9802C121.469 72.9802 118.879 75.607 118.919 78.4627V100.084C118.919 130.124 94.9049 154.138 64.8654 154.138C34.826 154.138 10.8114 130.124 10.8114 100.084V78.4627C10.8557 75.6324 8.3207 73.017 5.49043 72.973Z" fill="#73777B"/>
</svg>
