<svg width="155" height="200" viewBox="0 0 155 200" fill="none" xmlns="http://www.w3.org/2000/svg">
<path fill-rule="evenodd" clip-rule="evenodd" d="M115.76 2.28914V38.8345H152.399L115.76 2.28914ZM65.5699 99.3651C63.2707 99.3651 61.4753 100.16 60.1823 101.751C58.8893 103.342 58.2428 105.699 58.2428 108.823C58.2428 111.947 58.8893 114.312 60.1823 115.917C61.4753 117.522 63.2707 118.324 65.5699 118.324C67.8684 118.324 69.6645 117.514 70.9576 115.895C72.2506 114.276 72.8971 111.918 72.8971 108.823C72.8971 105.727 72.2431 103.378 70.936 101.773C69.6281 100.168 67.8394 99.3651 65.5699 99.3651ZM29.624 100.053H25.7449V117.636H29.624C32.5835 117.636 34.8028 116.913 36.2831 115.465C37.7626 114.018 38.5028 111.804 38.5028 108.823C38.5028 105.843 37.7626 103.636 36.2831 102.202C34.8028 100.77 32.5835 100.053 29.624 100.053ZM138.734 123.203C137.972 123.934 137.117 124.3 136.169 124.3C135.163 124.3 134.287 123.869 133.54 123.01L126.126 114.154L118.584 123.01C117.836 123.869 116.974 124.3 115.998 124.3C115.05 124.3 114.194 123.928 113.433 123.182C112.671 122.437 112.291 121.577 112.291 120.603C112.291 119.772 112.593 118.998 113.196 118.281L121.471 108.737L113.412 99.4077C112.78 98.6628 112.464 97.8889 112.464 97.0866C112.464 96.1126 112.844 95.2591 113.605 94.5286C114.367 93.7978 115.236 93.4324 116.213 93.4324C117.219 93.4324 118.095 93.8623 118.842 94.7217L126.126 103.32L133.368 94.7217C134.057 93.8623 134.904 93.4324 135.911 93.4324C136.887 93.4324 137.757 93.7978 138.518 94.5286C139.279 95.2591 139.66 96.1126 139.66 97.0866C139.66 97.9179 139.359 98.6917 138.755 99.4077L130.695 108.737L138.927 118.281C139.559 118.998 139.876 119.786 139.876 120.645C139.876 121.62 139.494 122.473 138.734 123.203ZM94.5552 115.852C95.8048 117.386 97.7083 118.152 100.266 118.152C101.128 118.152 101.961 118.016 102.766 117.744C103.57 117.471 104.604 117.049 105.869 116.475C106.473 116.16 106.918 115.945 107.205 115.831C107.492 115.716 107.837 115.658 108.24 115.658C108.958 115.658 109.568 115.967 110.072 116.583C110.574 117.2 110.825 117.952 110.825 118.84C110.825 119.441 110.718 119.951 110.502 120.366C110.287 120.782 109.935 121.161 109.447 121.505C106.688 123.426 103.484 124.385 99.8351 124.385C96.7886 124.385 94.1238 123.756 91.8395 122.494C89.5551 121.233 87.7884 119.428 86.5384 117.077C85.2885 114.727 84.6635 111.976 84.6635 108.823C84.6635 105.699 85.2885 102.962 86.5384 100.611C87.7884 98.2622 89.5551 96.4562 91.8395 95.195C94.1238 93.9338 96.7886 93.3034 99.8351 93.3034C103.484 93.3034 106.688 94.2636 109.447 96.1834C109.935 96.5277 110.287 96.9002 110.502 97.3015C110.718 97.7033 110.825 98.2188 110.825 98.8492C110.825 99.7375 110.574 100.49 110.072 101.106C109.568 101.723 108.958 102.031 108.24 102.031C107.808 102.031 107.421 101.966 107.076 101.837C106.731 101.708 106.328 101.501 105.869 101.214C104.863 100.611 103.915 100.182 103.024 99.924C102.134 99.6656 101.214 99.5367 100.266 99.5367C97.7083 99.5367 95.8048 100.304 94.5552 101.837C93.3053 103.37 92.6803 105.699 92.6803 108.823C92.6803 111.976 93.3053 114.319 94.5552 115.852ZM78.8884 117.056C77.6522 119.392 75.8925 121.198 73.6081 122.473C71.3242 123.748 68.6445 124.385 65.5698 124.385C62.4665 124.385 59.7727 123.748 57.4883 122.473C55.204 121.198 53.4439 119.392 52.2088 117.056C50.9726 114.72 50.3551 111.976 50.3551 108.823C50.3551 105.671 50.9726 102.927 52.2088 100.59C53.4439 98.2544 55.204 96.4562 57.4883 95.195C59.7727 93.9338 62.4665 93.3034 65.5698 93.3034C68.6731 93.3034 71.3669 93.9338 73.6512 95.195C75.9356 96.4562 77.6882 98.2544 78.9095 100.59C80.1309 102.927 80.7413 105.671 80.7413 108.823C80.7413 111.976 80.1234 114.72 78.8884 117.056ZM44.4726 116.97C43.1933 119.248 41.3403 120.989 38.9122 122.193C36.4836 123.397 33.5743 123.998 30.1842 123.998H21.4778C20.2992 123.998 19.3945 123.683 18.7624 123.053C18.13 122.423 17.8142 121.52 17.8142 120.345V97.3445C17.8142 96.1697 18.13 95.2669 18.7624 94.6361C19.3945 94.0057 20.2992 93.6903 21.4778 93.6903H30.1842C33.5461 93.6903 36.4409 94.2996 38.8691 95.517C41.2968 96.7356 43.1576 98.4767 44.4507 100.74C45.7437 103.005 46.3902 105.699 46.3902 108.823C46.3902 111.976 45.7504 114.691 44.4726 116.97ZM150.776 46.6509H125.785H111.842C109.678 46.6509 107.924 44.9008 107.924 42.7427V3.90826C107.924 3.89614 107.925 3.88442 107.925 3.87269V0H4.3714C2.20734 0 0.453125 1.74934 0.453125 3.90826V196.092C0.453125 198.25 2.20734 200 4.3714 200H150.776C152.94 200 154.694 198.25 154.694 196.092V46.6509H150.776Z" fill="black"/>
</svg>
