<svg width="160" height="200" viewBox="0 0 160 200" fill="none" xmlns="http://www.w3.org/2000/svg">
<path fill-rule="evenodd" clip-rule="evenodd" d="M35.5556 26.6666C35.5556 11.9385 47.4941 0 62.2222 0H97.7778C112.506 0 124.444 11.9385 124.444 26.6666V31.111H151.111C156.02 31.111 160 35.0912 160 39.9999C160 44.9086 156.02 48.8888 151.111 48.8888H8.88889C3.98014 48.8888 0 44.9086 0 39.9999C0 35.0912 3.98014 31.111 8.88889 31.111H35.5556V26.6666ZM53.3333 31.111H106.667V26.6666C106.667 21.7579 102.687 17.7777 97.7778 17.7777H62.2222C57.3135 17.7777 53.3333 21.7579 53.3333 26.6666V31.111Z" fill="#616161"/>
<path d="M142.429 63.3652C147.326 63.7164 151.012 67.9683 150.664 72.8651L143.35 175.234C142.354 189.189 130.741 200 116.751 200H43.1918C29.2017 200 17.5888 189.189 16.5927 175.234L9.28096 72.8651C8.92977 67.9683 12.6163 63.7162 17.5131 63.3652C22.4099 63.016 26.6641 66.7025 27.013 71.5993L34.3248 173.969C34.6581 178.621 38.5271 182.225 43.1918 182.225H116.751C121.416 182.225 125.285 178.621 125.618 173.969L132.93 71.5993C133.279 66.7025 137.533 63.0162 142.43 63.3652H142.429Z" fill="#616161"/>
<path d="M62.2092 80C67.1179 80 71.0981 83.9801 71.0981 88.8889V146.666C71.0981 151.575 67.1179 155.555 62.2092 155.555C57.3005 155.555 53.3203 151.575 53.3203 146.666V88.8889C53.3203 83.9801 57.3005 80 62.2092 80Z" fill="#616161"/>
<path d="M106.645 88.8889C106.645 83.9801 102.665 80 97.7561 80C92.8473 80 88.8672 83.9801 88.8672 88.8889V146.666C88.8672 151.575 92.8473 155.555 97.7561 155.555C102.665 155.555 106.645 151.575 106.645 146.666V88.8889Z" fill="#616161"/>
</svg>
