<svg width="155" height="200" viewBox="0 0 155 200" fill="none" xmlns="http://www.w3.org/2000/svg">
<path fill-rule="evenodd" clip-rule="evenodd" d="M114.558 117.292C114.558 118.726 114.451 119.822 114.235 120.581C114.02 121.341 113.632 121.935 113.071 122.365C112.511 122.795 111.671 123.168 110.55 123.483C109.429 123.77 108.186 123.992 106.822 124.149C105.457 124.306 104.185 124.386 103.007 124.386C99.7025 124.386 96.8363 123.762 94.4086 122.516C91.98 121.269 90.12 119.478 88.827 117.142C87.5339 114.806 86.8874 112.033 86.8874 108.823C86.8874 105.671 87.5339 102.927 88.827 100.59C90.12 98.2548 91.9585 96.4566 94.3439 95.195C96.7286 93.9342 99.516 93.3034 102.705 93.3034C104.716 93.3034 106.52 93.5399 108.115 94.0128C109.709 94.4856 111.196 95.2098 112.576 96.1838C113.064 96.5277 113.416 96.9006 113.632 97.3015C113.847 97.7033 113.955 98.2192 113.955 98.8492C113.955 99.738 113.71 100.49 113.222 101.106C112.733 101.723 112.145 102.031 111.455 102.031C110.995 102.031 110.6 101.966 110.27 101.837C109.939 101.708 109.515 101.487 108.998 101.171C107.935 100.598 106.936 100.182 106.003 99.924C105.069 99.666 104.056 99.5371 102.964 99.5371C100.234 99.5371 98.2014 100.297 96.8653 101.816C95.5292 103.335 94.8611 105.671 94.8611 108.823C94.8611 112.062 95.5574 114.462 96.9515 116.024C98.3448 117.587 100.478 118.367 103.352 118.367C104.731 118.367 106.096 118.224 107.447 117.937V112.305H104.343C103.395 112.305 102.662 112.069 102.145 111.596C101.628 111.123 101.369 110.457 101.369 109.597C101.369 108.737 101.628 108.071 102.145 107.598C102.662 107.125 103.395 106.889 104.343 106.889H111.455C112.403 106.889 113.157 107.154 113.718 107.684C114.278 108.215 114.558 108.924 114.558 109.812V117.292ZM80.9183 110.457C79.036 112.176 76.4288 113.036 73.0955 113.036H66.3286V120.345C66.3286 121.548 65.9693 122.502 65.2511 123.204C64.5329 123.906 63.5557 124.257 62.3202 124.257C61.1138 124.257 60.1581 123.906 59.454 123.204C58.7495 122.502 58.398 121.548 58.398 120.345V97.3445C58.398 96.1697 58.7142 95.2669 59.3462 94.6361C59.9783 94.0061 60.8834 93.6903 62.0616 93.6903H73.0955C76.4574 93.6903 79.072 94.5435 80.9399 96.2483C82.8073 97.9538 83.7418 100.326 83.7418 103.363C83.7418 106.373 82.8003 108.737 80.9183 110.457ZM52.8819 114.799C52.8819 117.665 52.1276 119.893 50.6191 121.484C49.1105 123.075 46.8618 123.971 43.8738 124.171L42.4945 124.257C39.3333 124.4 37.7534 123.34 37.7534 121.075C37.7534 120.073 37.9979 119.328 38.4861 118.84C38.9744 118.353 39.7502 118.081 40.8136 118.023L42.279 117.937C43.141 117.909 43.7942 117.63 44.2401 117.099C44.6852 116.569 44.9082 115.845 44.9082 114.928V97.3445C44.9082 96.1697 45.2671 95.2313 45.9857 94.5286C46.7035 93.8267 47.6808 93.4754 48.9166 93.4754C50.0944 93.4754 51.0501 93.8267 51.7828 94.5286C52.5155 95.2313 52.8819 96.1697 52.8819 97.3445V114.799ZM150.565 46.6509H125.574H111.631C109.467 46.6509 107.713 44.9012 107.713 42.7427V3.90826C107.713 3.89614 107.714 3.88481 107.714 3.87269V0H4.16046C1.9964 0 0.242188 1.74973 0.242188 3.90826V196.092C0.242188 198.25 1.9964 200 4.16046 200H150.565C152.729 200 154.483 198.25 154.483 196.092V46.6509H150.565ZM115.549 2.28934V38.8347H152.188L115.549 2.28934ZM72.018 99.6662H66.3287V107.104H72.018C73.4835 107.104 74.5677 106.803 75.2722 106.201C75.9759 105.599 76.3281 104.668 76.3281 103.406C76.3281 100.913 74.8913 99.6662 72.018 99.6662Z" fill="#1B1B1B"/>
</svg>
