<svg width="200" height="200" viewBox="0 0 200 200" fill="none" xmlns="http://www.w3.org/2000/svg">
<path fill-rule="evenodd" clip-rule="evenodd" d="M99.8761 0C155.143 0 200 44.6097 200 99.8761C200 155.143 155.143 200 99.8761 200C44.6097 200 0 155.143 0 99.8761C0 44.6097 44.6097 0 99.8761 0ZM69.3928 59.7274C62.9492 53.2838 53.2838 62.9492 59.7274 69.3928L90.2107 99.8761L59.7274 130.359C53.2838 136.803 62.9492 146.468 69.3928 140.025L99.8761 109.542L130.359 140.025C136.803 146.468 146.468 136.803 140.025 130.359L109.542 99.8761L140.025 69.3928C146.468 62.9492 136.803 53.2838 130.359 59.7274L99.8761 90.2107L69.3928 59.7274Z" fill="#CF5050"/>
</svg>
