<svg width="155" height="200" viewBox="0 0 155 200" fill="none" xmlns="http://www.w3.org/2000/svg">
<path fill-rule="evenodd" clip-rule="evenodd" d="M122.516 117.292C122.516 118.726 122.408 119.822 122.192 120.581C121.977 121.341 121.589 121.935 121.029 122.365C120.468 122.795 119.628 123.168 118.507 123.483C117.387 123.77 116.143 123.992 114.779 124.149C113.414 124.306 112.142 124.386 110.964 124.386C107.66 124.386 104.794 123.762 102.366 122.516C99.9373 121.269 98.0773 119.478 96.7842 117.142C95.4912 114.806 94.8447 112.033 94.8447 108.823C94.8447 105.671 95.4912 102.927 96.7842 100.59C98.0773 98.2548 99.9157 96.4566 102.301 95.195C104.686 93.9342 107.473 93.3034 110.663 93.3034C112.674 93.3034 114.477 93.5399 116.072 94.0128C117.667 94.4856 119.154 95.2098 120.533 96.1838C121.021 96.5277 121.373 96.9006 121.589 97.3015C121.804 97.7033 121.912 98.2192 121.912 98.8492C121.912 99.738 121.668 100.49 121.179 101.106C120.69 101.723 120.102 102.031 119.412 102.031C118.952 102.031 118.557 101.966 118.227 101.837C117.896 101.708 117.473 101.487 116.956 101.171C115.892 100.598 114.893 100.182 113.96 99.924C113.026 99.666 112.013 99.5371 110.921 99.5371C108.191 99.5371 106.159 100.297 104.823 101.816C103.486 103.335 102.818 105.671 102.818 108.823C102.818 112.062 103.515 114.462 104.909 116.024C106.302 117.587 108.436 118.367 111.309 118.367C112.689 118.367 114.053 118.224 115.404 117.937V112.305H112.301C111.352 112.305 110.62 112.069 110.102 111.596C109.585 111.123 109.327 110.457 109.327 109.597C109.327 108.737 109.585 108.071 110.102 107.598C110.62 107.125 111.352 106.889 112.301 106.889H119.412C120.361 106.889 121.115 107.154 121.675 107.684C122.235 108.215 122.516 108.924 122.516 109.812V117.292ZM90.104 120.345C90.104 121.52 89.7592 122.466 89.0696 123.182C88.3799 123.899 87.4889 124.257 86.3973 124.257C85.1042 124.257 84.127 123.827 83.4664 122.967L70.3637 106.674V120.345C70.3637 121.52 70.033 122.466 69.3724 123.182C68.7114 123.899 67.8207 124.257 66.7001 124.257C65.6081 124.257 64.7175 123.899 64.0278 123.182C63.3382 122.466 62.9934 121.52 62.9934 120.345V97.3445C62.9934 96.1986 63.3382 95.2669 64.0278 94.5501C64.7175 93.8341 65.6081 93.4754 66.7001 93.4754C67.9355 93.4754 68.8983 93.9053 69.5879 94.7651L82.6906 111.016V97.3445C82.6906 96.1697 83.028 95.2313 83.7035 94.5286C84.3782 93.8267 85.2618 93.4754 86.3542 93.4754C87.4462 93.4754 88.3439 93.8341 89.048 94.5501C89.7517 95.2669 90.104 96.1986 90.104 97.3445V120.345ZM56.3351 110.457C54.4524 112.176 51.8451 113.036 48.5119 113.036H41.745V120.345C41.745 121.548 41.3857 122.502 40.6675 123.204C39.9493 123.906 38.972 124.257 37.7366 124.257C36.5302 124.257 35.5745 123.906 34.8704 123.204C34.1663 122.502 33.8148 121.548 33.8148 120.345V97.3445C33.8148 96.1697 34.1306 95.2669 34.7626 94.6361C35.3947 94.0061 36.2998 93.6903 37.4784 93.6903H48.5119C51.8737 93.6903 54.4884 94.5435 56.3563 96.2483C58.2237 97.9538 59.1582 100.326 59.1582 103.363C59.1582 106.373 58.2167 108.737 56.3351 110.457ZM150.807 46.6509H125.816H111.873C109.709 46.6509 107.955 44.9012 107.955 42.7427V3.90826C107.955 3.89614 107.956 3.88481 107.956 3.87269V0H4.40265C2.23859 0 0.484375 1.74973 0.484375 3.90826V196.092C0.484375 198.25 2.23859 200 4.40265 200H150.807C152.971 200 154.725 198.25 154.725 196.092V46.6509H150.807ZM115.791 2.28934V38.8347H152.43L115.791 2.28934ZM47.4345 99.6662H41.7452V107.104H47.4345C48.8999 107.104 49.9841 106.803 50.6886 106.201C51.3923 105.599 51.7446 104.668 51.7446 103.406C51.7446 100.913 50.3078 99.6662 47.4345 99.6662Z" fill="#1B1B1B"/>
</svg>
