<svg width="155" height="200" viewBox="0 0 155 200" fill="none" xmlns="http://www.w3.org/2000/svg">
<path d="M14.109 99.9739C14.109 65.0172 42.5376 36.5886 77.4942 36.5886L66.9651 47.1178C64.2276 49.8553 64.2276 54.2775 66.9651 57.0151C68.4392 58.4892 70.1239 59.1209 72.0191 59.1209C73.9143 59.1209 75.599 58.4892 77.0731 57.0151L99.6053 34.4828C102.343 31.7453 102.343 27.323 99.6053 24.5855L76.8625 2.05318C74.1249 -0.684392 69.7027 -0.684392 66.9651 2.05318C64.2276 4.79074 64.2276 9.21297 66.9651 11.9505L77.4942 22.4796C34.7461 22.4796 0 57.2257 0 99.9739C0 124.612 12.0032 147.987 31.7979 162.517C33.0614 163.359 34.5355 163.78 36.0095 163.78C38.1154 163.78 40.2212 162.727 41.6953 160.832C44.0117 157.673 43.3799 153.251 40.2212 150.935C23.7958 139.353 14.109 120.19 14.109 99.9739Z" fill="#307FC9"/>
<path d="M154.995 99.9739C154.995 75.3358 142.992 51.9612 123.197 37.431C120.038 35.1146 115.616 35.7463 113.3 38.9051C110.983 42.0638 111.615 46.486 114.774 48.8024C130.988 60.8056 140.886 79.758 140.886 99.9739C140.886 134.931 112.457 163.359 77.5006 163.359L88.0297 152.83C90.7673 150.092 90.7673 145.67 88.0297 142.933C85.2921 140.195 80.8699 140.195 78.1323 142.933L55.6001 165.465C52.8625 168.203 52.8625 172.625 55.6001 175.362L78.1323 197.895C79.6064 199.369 81.2911 200 83.1863 200C85.0816 200 86.7662 199.369 88.2403 197.895C90.9778 195.157 90.9778 190.735 88.2403 187.997L77.7112 177.468C120.249 177.468 154.995 142.722 154.995 99.9739Z" fill="#307FC9"/>
</svg>
