<svg width="197" height="202" viewBox="0 0 197 202" fill="none" xmlns="http://www.w3.org/2000/svg">
<path d="M0.5 178.899V101.549C0.5 89.0679 10.6183 78.9488 23.0998 78.9488C35.5814 78.9488 45.6997 89.0679 45.6997 101.549V178.899C45.6997 191.38 35.5814 201.499 23.0998 201.499C10.6183 201.499 0.5 191.38 0.5 178.899Z" fill="#8080D9" stroke="white"/>
<path d="M66.8008 79.4492V79.3293L66.8551 79.2225C67.8707 77.225 68.8858 75.4016 69.9298 73.5274C69.9298 73.5274 69.9299 73.5273 69.9299 73.5273L69.9402 73.5088C74.5836 65.1678 79.9078 55.604 88.9199 24.0622C91.7017 14.3259 95.8925 8.00212 100.666 4.37764C105.449 0.746063 110.779 -0.144821 115.749 0.920197C125.648 3.04144 134.1 12.9138 134.1 24.1996V67.8992H173.812C187.778 67.8992 198.4 80.4388 196.105 94.2145L181.371 182.614C179.555 193.511 170.126 201.499 159.078 201.499H89.4006C76.9191 201.499 66.8008 191.38 66.8008 178.899V79.4492Z" fill="#8080D9" stroke="white"/>
</svg>
