<svg width="1005" height="1004" viewBox="0 0 1005 1004" fill="none" xmlns="http://www.w3.org/2000/svg">
<path d="M718.787 825.999V718.756H861.112C859.904 764.875 852.398 810.618 838.804 854.711C800.881 837.904 760.213 828.174 718.787 825.999Z" fill="#6061CF" stroke="#6061CF"/>
<path d="M813.72 915.171L813.72 915.171C787.794 963.901 753.944 994.808 718.787 1002.91V862.972C755.823 865.154 792.143 874.116 825.95 889.398C822.146 898.326 818.096 906.955 813.72 915.171Z" fill="#6061CF" stroke="#6061CF"/>
<path d="M846.223 932.515C850.624 924.247 854.739 915.626 858.613 906.728C871.798 914.778 884.352 923.817 896.174 933.771C870.874 955.156 842.235 972.219 811.391 984.292C824.833 968.433 836.477 951.133 846.116 932.716L846.223 932.515Z" fill="#6061CF" stroke="#6061CF"/>
<path d="M574.722 511.208C578.525 502.273 582.585 493.652 586.953 485.436C612.879 436.698 646.728 405.798 681.885 397.689V537.627C644.848 535.445 608.528 526.49 574.722 511.208Z" fill="#6061CF" stroke="#6061CF"/>
<path d="M718.787 537.618V397.689C753.944 405.798 787.794 436.698 813.72 485.436L814.134 485.215L813.72 485.436C818.096 493.659 822.146 502.272 825.95 511.184C792.145 526.475 755.823 535.436 718.787 537.618Z" fill="#6061CF" stroke="#6061CF"/>
<path d="M858.612 493.891C854.738 484.993 850.624 476.374 846.223 468.115C836.565 449.613 824.875 432.25 811.39 416.334C842.226 428.398 870.875 445.47 896.174 466.855C884.352 476.801 871.798 485.841 858.612 493.891Z" fill="#6061CF" stroke="#6061CF"/>
<path d="M1004.47 718.756C1000.31 789.461 971.52 856.474 923.093 908.165C907.218 894.468 890.111 882.257 871.995 871.691C887.376 825.38 896.341 773.137 897.995 718.756H1004.47Z" fill="#6061CF" stroke="#6061CF"/>
<path d="M898.004 681.839C896.349 627.45 887.377 575.215 871.997 528.904C890.112 518.339 907.218 506.126 923.093 492.43C971.52 544.123 1000.31 611.134 1004.47 681.839H898.004Z" fill="#6061CF" stroke="#6061CF"/>
<path d="M594.359 123.895L594.359 123.895C604.366 133.894 609.996 147.459 610.012 161.611V196.574C594.56 185.187 575.857 179.043 556.642 179.067H287.799V108.241H556.643C570.795 108.257 584.36 113.888 594.359 123.895Z" fill="#6061CF" stroke="#6061CF"/>
<mask id="path-10-inside-1_725_8606" fill="white">
<path d="M610.515 370.974V269.345C610.499 255.06 604.816 241.368 594.715 231.276C584.623 221.175 570.931 215.492 556.646 215.476H269.345C259.429 215.476 251.389 207.436 251.389 197.52V53.8694C251.373 39.5847 245.69 25.8925 235.597 15.7919C225.497 5.69943 211.805 0.0160067 197.52 0H53.8694C39.5847 0.0160314 25.8926 5.69943 15.7919 15.7919C5.69943 25.8923 0.0160067 39.5845 0 53.8694V628.47C0.0160314 642.755 5.69943 656.447 15.7919 666.548C25.8923 676.64 39.5845 682.324 53.8694 682.34H359.598C363.422 610.666 389.715 542.016 434.758 486.128C479.792 430.24 541.285 389.95 610.506 370.976L610.515 370.974Z"/>
</mask>
<path d="M610.515 370.974V269.345C610.499 255.06 604.816 241.368 594.715 231.276C584.623 221.175 570.931 215.492 556.646 215.476H269.345C259.429 215.476 251.389 207.436 251.389 197.52V53.8694C251.373 39.5847 245.69 25.8925 235.597 15.7919C225.497 5.69943 211.805 0.0160067 197.52 0H53.8694C39.5847 0.0160314 25.8926 5.69943 15.7919 15.7919C5.69943 25.8923 0.0160067 39.5845 0 53.8694V628.47C0.0160314 642.755 5.69943 656.447 15.7919 666.548C25.8923 676.64 39.5845 682.324 53.8694 682.34H359.598C363.422 610.666 389.715 542.016 434.758 486.128C479.792 430.24 541.285 389.95 610.506 370.976L610.515 370.974Z" fill="#6061CF"/>
<path d="M610.515 370.974L610.753 371.945L611.515 371.758V370.974H610.515ZM610.515 269.345L611.515 269.345L611.515 269.344L610.515 269.345ZM594.715 231.276L594.008 231.983L594.008 231.983L594.715 231.276ZM556.646 215.476L556.647 214.476H556.646V215.476ZM251.389 53.8694L252.389 53.8694L252.389 53.8683L251.389 53.8694ZM235.597 15.7919L236.305 15.0851L236.304 15.0845L235.597 15.7919ZM197.52 0L197.521 -1H197.52V0ZM53.8694 0L53.8694 -1L53.8683 -0.999999L53.8694 0ZM15.7919 15.7919L15.0851 15.0845L15.0845 15.0851L15.7919 15.7919ZM0 53.8694L-1 53.8683V53.8694H0ZM0 628.47L-1 628.47L-0.999999 628.471L0 628.47ZM15.7919 666.548L15.0845 667.255L15.0851 667.255L15.7919 666.548ZM53.8694 682.34L53.8683 683.34H53.8694V682.34ZM359.598 682.34V683.34H360.546L360.597 682.393L359.598 682.34ZM434.758 486.128L435.537 486.755L435.537 486.755L434.758 486.128ZM610.506 370.976L610.268 370.005L610.255 370.008L610.241 370.011L610.506 370.976ZM611.515 370.974V269.345H609.515V370.974H611.515ZM611.515 269.344C611.499 254.794 605.71 240.848 595.422 230.568L594.008 231.983C603.921 241.888 609.499 255.326 609.515 269.346L611.515 269.344ZM595.423 230.569C585.143 220.281 571.197 214.492 556.647 214.476L556.645 216.476C570.665 216.492 584.103 222.07 594.008 231.983L595.423 230.569ZM556.646 214.476H269.345V216.476H556.646V214.476ZM269.345 214.476C259.982 214.476 252.389 206.883 252.389 197.52H250.389C250.389 207.988 258.877 216.476 269.345 216.476V214.476ZM252.389 197.52V53.8694H250.389V197.52H252.389ZM252.389 53.8683C252.373 39.3186 246.584 25.3728 236.305 15.0851L234.89 16.4987C244.795 26.4123 250.373 39.8507 250.389 53.8706L252.389 53.8683ZM236.304 15.0845C226.017 4.80511 212.071 -0.983696 197.521 -0.999999L197.519 0.999999C211.539 1.01571 224.977 6.59374 234.89 16.4993L236.304 15.0845ZM197.52 -1H53.8694V1H197.52V-1ZM53.8683 -0.999999C39.3186 -0.983671 25.3728 4.80511 15.0851 15.0845L16.4987 16.4993C26.4123 6.59374 39.8507 1.01573 53.8706 0.999999L53.8683 -0.999999ZM15.0845 15.0851C4.80512 25.3726 -0.983696 39.3184 -0.999999 53.8683L0.999999 53.8706C1.01571 39.8505 6.59375 26.4121 16.4993 16.4987L15.0845 15.0851ZM-1 53.8694V628.47H1V53.8694H-1ZM-0.999999 628.471C-0.983671 643.021 4.80512 656.967 15.0845 667.255L16.4993 665.841C6.59375 655.927 1.01573 642.489 0.999999 628.469L-0.999999 628.471ZM15.0851 667.255C25.3726 677.535 39.3184 683.323 53.8683 683.34L53.8706 681.34C39.8505 681.324 26.4121 675.746 16.4987 665.84L15.0851 667.255ZM53.8694 683.34H359.598V681.34H53.8694V683.34ZM360.597 682.393C364.409 610.929 390.626 542.48 435.537 486.755L433.979 485.5C388.805 541.552 362.434 610.403 358.6 682.286L360.597 682.393ZM435.537 486.755C480.439 431.031 541.752 390.859 610.77 371.94L610.241 370.011C540.818 389.041 479.145 429.449 433.979 485.5L435.537 486.755ZM610.744 371.947L610.753 371.945L610.277 370.002L610.268 370.005L610.744 371.947Z" fill="#6061CF" mask="url(#path-10-inside-1_725_8606)"/>
<path d="M554.305 468.099L554.305 468.099C549.905 476.358 545.791 484.976 541.918 493.872C528.733 485.823 516.179 476.784 504.357 466.838C529.648 445.46 558.28 428.398 589.108 416.325C575.63 432.241 563.957 449.605 554.305 468.099Z" fill="#6061CF" stroke="#6061CF"/>
<path d="M477.534 908.165C429.106 856.472 400.318 789.461 396.157 718.756H502.631C504.286 773.137 513.251 825.38 528.631 871.691C510.517 882.257 493.409 894.469 477.534 908.165Z" fill="#6061CF" stroke="#6061CF"/>
<path d="M681.852 826.009C640.426 828.185 599.758 837.915 561.835 854.722C548.24 810.629 540.734 764.886 539.527 718.766H681.852V826.009Z" fill="#6061CF" stroke="#6061CF"/>
<path d="M586.952 915.173L586.952 915.173C582.576 906.957 578.526 898.337 574.722 889.417C608.526 874.126 644.848 865.172 681.885 862.982V1002.92C646.728 994.811 612.878 963.911 586.952 915.173Z" fill="#6061CF" stroke="#6061CF"/>
<path d="M504.357 933.745C516.18 923.799 528.733 914.759 541.919 906.709C545.793 915.607 549.907 924.227 554.308 932.485C563.967 950.987 575.656 968.35 589.141 984.266C558.305 972.202 529.656 955.13 504.357 933.745Z" fill="#6061CF" stroke="#6061CF"/>
<path d="M681.852 574.598V681.841H539.527C540.735 635.722 548.241 589.979 561.835 545.886C599.758 562.693 640.426 572.422 681.852 574.598Z" fill="#6061CF" stroke="#6061CF"/>
<path d="M528.631 528.914C513.244 575.225 504.28 627.467 502.625 681.849H396.159C400.321 611.144 429.106 544.13 477.534 492.44C493.408 506.137 510.516 518.348 528.631 528.914Z" fill="#6061CF" stroke="#6061CF"/>
<path d="M718.787 681.841V574.598C760.213 572.422 800.881 562.692 838.804 545.886C852.399 589.979 859.906 635.722 861.112 681.841H718.787Z" fill="#6061CF" stroke="#6061CF"/>
</svg>
