<svg width="228" height="200" viewBox="0 0 228 200" fill="none" xmlns="http://www.w3.org/2000/svg">
<path d="M127.812 200C112.003 200.005 96.4178 196.259 82.3372 189.07C80.0958 187.919 78.4034 185.925 77.6323 183.526C76.8612 181.128 77.0746 178.521 78.2256 176.28C79.3765 174.038 81.3707 172.346 83.7694 171.575C86.1681 170.804 88.7749 171.017 91.0164 172.168C102.396 178.02 115.016 181.049 127.812 180.999C143.835 180.999 159.497 176.248 172.819 167.346C186.141 158.444 196.524 145.792 202.655 130.989C208.786 116.186 210.39 99.8974 207.264 84.1831C204.137 68.4687 196.421 54.0344 185.091 42.7056C173.761 31.3767 159.325 23.6621 143.611 20.5375C127.896 17.4128 111.607 19.0184 96.8053 25.1512C82.0031 31.284 69.352 41.6685 60.4518 54.9916C51.5516 68.3146 46.8022 83.9777 46.804 100C46.804 102.518 45.8036 104.934 44.0228 106.715C42.242 108.495 39.8267 109.496 37.3083 109.496C34.7898 109.496 32.3745 108.495 30.5937 106.715C28.8129 104.934 27.8125 102.518 27.8125 100C27.8125 80.2219 33.6774 60.8879 44.6655 44.443C55.6537 27.9981 71.2715 15.1809 89.5441 7.61209C107.817 0.0433284 127.923 -1.937 147.322 1.92152C166.72 5.78004 184.538 15.3041 198.523 29.2894C212.508 43.2746 222.032 61.0929 225.891 80.491C229.749 99.8891 227.769 119.996 220.2 138.268C212.632 156.541 199.814 172.159 183.369 183.147C166.925 194.135 147.591 200 127.812 200Z" fill="#73777B"/>
<path d="M37.8712 123.341C35.3543 123.342 32.9396 122.345 31.1577 120.568L2.67034 92.0804C0.939298 90.2907 -0.0195545 87.8927 0.000302369 85.403C0.0201592 82.9132 1.01714 80.5308 2.7765 78.7689C4.53587 77.0071 6.91684 76.0067 9.40661 75.9833C11.8964 75.96 14.2957 76.9154 16.0879 78.6439L37.8617 100.418L59.645 78.6439C61.4371 76.9154 63.8364 75.96 66.3262 75.9833C68.816 76.0067 71.197 77.0071 72.9563 78.7689C74.7157 80.5308 75.7127 82.9132 75.7325 85.403C75.7524 87.8927 74.7935 90.2907 73.0625 92.0804L44.5752 120.568C42.7956 122.343 40.3847 123.34 37.8712 123.341Z" fill="#73777B"/>
</svg>
