<svg width="155" height="200" viewBox="0 0 155 200" fill="none" xmlns="http://www.w3.org/2000/svg">
<path fill-rule="evenodd" clip-rule="evenodd" d="M120.027 99.1502C119.409 99.6379 118.468 99.881 117.204 99.881H106.86V105.47H116.342C117.606 105.47 118.547 105.728 119.165 106.244C119.783 106.76 120.092 107.548 120.092 108.608C120.092 109.669 119.783 110.443 119.165 110.93C118.547 111.417 117.606 111.66 116.342 111.66H106.86V120.345C106.86 121.548 106.508 122.502 105.804 123.204C105.099 123.906 104.159 124.257 102.981 124.257C101.802 124.257 100.854 123.899 100.136 123.182C99.4172 122.466 99.0583 121.52 99.0583 120.345V97.3445C99.0583 96.1697 99.3745 95.2669 100.007 94.6361C100.639 94.0061 101.544 93.6903 102.722 93.6903H117.204C118.497 93.6903 119.446 93.9416 120.049 94.4427C120.652 94.9445 120.954 95.7398 120.954 96.8287C120.954 97.8894 120.644 98.6632 120.027 99.1502ZM92.3996 116.97C91.1211 119.248 89.2673 120.99 86.8396 122.193C84.4114 123.397 81.5021 123.999 78.1116 123.999H69.4056C68.227 123.999 67.3219 123.684 66.6902 123.053C66.0578 122.423 65.742 121.52 65.742 120.345V97.3445C65.742 96.1697 66.0578 95.2669 66.6902 94.6361C67.3219 94.0061 68.227 93.6903 69.4056 93.6903H78.1116C81.4735 93.6903 84.3679 94.2996 86.7965 95.5174C89.2246 96.736 91.0854 98.4772 92.3785 100.741C93.6711 103.005 94.318 105.7 94.318 108.823C94.318 111.976 93.6781 114.691 92.3996 116.97ZM59.0833 110.457C57.201 112.176 54.5933 113.036 51.2605 113.036H44.4936V120.345C44.4936 121.548 44.1339 122.502 43.4161 123.204C42.6975 123.906 41.7202 124.257 40.4852 124.257C39.2784 124.257 38.3227 123.906 37.619 123.204C36.9145 122.502 36.563 121.548 36.563 120.345V97.3445C36.563 96.1697 36.8788 95.2669 37.5112 94.6361C38.1429 94.0061 39.048 93.6903 40.2266 93.6903H51.2605C54.6223 93.6903 57.2366 94.5435 59.1048 96.2483C60.9723 97.9538 61.9064 100.326 61.9064 103.363C61.9064 106.373 60.9648 108.737 59.0833 110.457ZM150.323 46.6509H125.332H111.389C109.225 46.6509 107.47 44.9012 107.47 42.7427V3.90826C107.47 3.89614 107.472 3.88481 107.472 3.87269V0H3.91827C1.75421 0 0 1.74973 0 3.90826V196.092C0 198.25 1.75421 200 3.91827 200H150.323C152.487 200 154.241 198.25 154.241 196.092V46.6509H150.323ZM115.307 2.2893V38.8346H151.946L115.307 2.2893ZM77.5516 100.053H73.6725V117.636H77.5516C80.5107 117.636 82.7304 116.913 84.2103 115.465C85.6902 114.018 86.43 111.804 86.43 108.823C86.43 105.843 85.6902 103.636 84.2103 102.203C82.7304 100.77 80.5107 100.053 77.5516 100.053ZM50.1828 99.6662H44.4934V107.104H50.1828C51.6482 107.104 52.7324 106.803 53.4369 106.201C54.1406 105.599 54.4929 104.668 54.4929 103.406C54.4929 100.913 53.056 99.6662 50.1828 99.6662Z" fill="#1B1B1B"/>
</svg>
