<svg width="155" height="200" viewBox="0 0 155 200" fill="none" xmlns="http://www.w3.org/2000/svg">
<path fill-rule="evenodd" clip-rule="evenodd" d="M119.506 99.3006C118.887 99.831 117.947 100.096 116.682 100.096H110.605V120.345C110.605 121.52 110.239 122.459 109.506 123.161C108.773 123.863 107.804 124.214 106.597 124.214C105.39 124.214 104.42 123.863 103.688 123.161C102.955 122.459 102.588 121.52 102.588 120.345V100.096H96.5112C95.2464 100.096 94.3056 99.831 93.6881 99.3006C93.0698 98.7707 92.7614 97.9613 92.7614 96.8716C92.7614 95.7828 93.0698 94.98 93.6881 94.4641C94.3056 93.9483 95.2464 93.6903 96.5112 93.6903H116.682C117.947 93.6903 118.887 93.9483 119.506 94.4641C120.123 94.98 120.432 95.7828 120.432 96.8716C120.432 97.9613 120.123 98.7707 119.506 99.3006ZM89.6801 110.457C87.7977 112.176 85.1901 113.036 81.8572 113.036H75.0904V120.345C75.0904 121.548 74.7307 122.502 74.0128 123.204C73.2942 123.906 72.317 124.257 71.082 124.257C69.8751 124.257 68.9195 123.906 68.2158 123.204C67.5112 122.502 67.1598 121.548 67.1598 120.345V97.3445C67.1598 96.1697 67.4756 95.2669 68.108 94.6361C68.7396 94.0061 69.6448 93.6903 70.8234 93.6903H81.8572C85.2191 93.6903 87.8334 94.5435 89.7016 96.2483C91.5691 97.9538 92.5032 100.326 92.5032 103.363C92.5032 106.373 91.5616 108.737 89.6801 110.457ZM60.5011 110.457C58.6187 112.176 56.0111 113.036 52.6782 113.036H45.9114V120.345C45.9114 121.548 45.5517 122.502 44.8338 123.204C44.1152 123.906 43.138 124.257 41.903 124.257C40.6961 124.257 39.7405 123.906 39.0367 123.204C38.3322 122.502 37.9808 121.548 37.9808 120.345V97.3445C37.9808 96.1697 38.2966 95.2669 38.929 94.6361C39.5606 94.0061 40.4657 93.6903 41.6444 93.6903H52.6782C56.0401 93.6903 58.6544 94.5435 60.5226 96.2483C62.3901 97.9538 63.3242 100.326 63.3242 103.363C63.3242 106.373 62.3826 108.737 60.5011 110.457ZM150.534 46.6509H125.543H111.6C109.436 46.6509 107.682 44.9012 107.682 42.7427V3.90826C107.682 3.89614 107.683 3.88442 107.683 3.87269V0H4.12921C1.96554 0 0.210938 1.74973 0.210938 3.90826V196.092C0.210938 198.25 1.96554 200 4.12921 200H150.534C152.698 200 154.452 198.25 154.452 196.092V46.6509H150.534ZM115.518 2.28918V38.8345H152.157L115.518 2.28918ZM51.6006 99.666H45.9113V107.103H51.6006C53.0661 107.103 54.1502 106.803 54.8547 106.201C55.5585 105.599 55.9107 104.667 55.9107 103.406C55.9107 100.913 54.4739 99.666 51.6006 99.666ZM80.7795 99.666H75.0902V107.103H80.7795C82.2449 107.103 83.3291 106.803 84.0336 106.201C84.7374 105.599 85.0896 104.667 85.0896 103.406C85.0896 100.913 83.6528 99.666 80.7795 99.666Z" fill="#1B1B1B"/>
</svg>
