<svg width="222" height="202" viewBox="0 0 222 202" fill="none" xmlns="http://www.w3.org/2000/svg">
<path d="M7.37977 155.836C3.66903 155.836 0.75 158.755 0.75 162.466V175.991C0.75 189.911 12.092 201.25 26.2639 201.25H195.966C210.138 201.25 221.48 189.911 221.48 175.991V162.466C221.48 158.755 218.561 155.836 214.85 155.836C211.139 155.836 208.22 158.755 208.22 162.466V175.991C208.22 182.737 202.725 187.99 195.966 187.99H26.2639C19.5084 187.99 14.0095 182.485 14.0095 175.991V162.466C14.0095 158.749 10.8288 155.836 7.37977 155.836Z" fill="black" stroke="black" stroke-width="0.5"/>
<path d="M105.377 151.643C105.326 151.609 105.283 151.575 105.25 151.548C105.085 151.517 104.986 151.418 104.93 151.362L104.925 151.356C104.869 151.301 104.864 151.301 104.851 151.302C104.849 151.302 104.848 151.302 104.846 151.302H104.743L104.669 151.229L104.421 150.98L57.9836 111.177L57.9836 111.177L57.9791 111.173C55.3407 108.798 54.792 104.558 57.195 101.888C59.5688 99.2506 63.8073 98.7014 66.4774 101.102L101.789 131.369V7.37968V7.37077L101.79 7.36188C102.054 3.66232 105.222 0.749924 108.674 0.749924C112.385 0.749924 115.304 3.66895 115.304 7.37968V131.369L150.618 101.1L150.618 101.1L150.624 101.095C151.937 100.045 153.267 99.5087 154.864 99.5087C156.721 99.5087 158.577 100.304 159.901 101.892C162.29 104.55 162.021 108.793 159.107 111.179C159.107 111.179 159.106 111.18 159.105 111.181L113.183 150.725L112.934 150.974L112.861 151.047H112.757C112.755 151.047 112.754 151.047 112.752 151.047C112.739 151.046 112.734 151.046 112.679 151.101L112.674 151.106C112.606 151.174 112.478 151.302 112.247 151.302C112.194 151.302 112.118 151.332 112.035 151.388C111.997 151.413 111.965 151.438 111.943 151.457C111.932 151.467 111.924 151.474 111.918 151.479L111.913 151.484L111.913 151.484L111.913 151.484L111.913 151.484L111.913 151.485L111.913 151.485L111.912 151.485L111.84 151.557H111.736C111.735 151.557 111.733 151.557 111.732 151.557C111.718 151.557 111.713 151.556 111.658 151.612L111.653 151.617C111.585 151.685 111.458 151.812 111.226 151.812C111.169 151.812 111.097 151.843 110.955 151.914C110.949 151.917 110.943 151.919 110.937 151.922C110.823 151.98 110.649 152.068 110.46 152.068H110.459H110.457H110.456H110.455H110.453H110.452H110.45H110.449H110.447H110.446H110.444H110.443H110.441H110.44H110.439H110.437H110.436H110.434H110.433H110.432H110.43H110.429H110.428H110.426H110.425H110.423H110.422H110.421H110.419H110.418H110.417H110.415H110.414H110.413H110.412H110.41H110.409H110.408H110.406H110.405H110.404H110.403H110.401H110.4H110.399H110.397H110.396H110.395H110.394H110.393H110.391H110.39H110.389H110.388H110.386H110.385H110.384H110.383H110.382H110.38H110.379H110.378H110.377H110.376H110.375H110.373H110.372H110.371H110.37H110.369H110.368H110.367H110.365H110.364H110.363H110.362H110.361H110.36H110.359H110.358H110.356H110.355H110.354H110.353H110.352H110.351H110.35H110.349H110.348H110.347H110.346H110.345H110.344H110.343H110.341H110.34H110.339H110.338H110.337H110.336H110.335H110.334H110.333H110.332H110.331H110.33H110.329H110.328H110.327H110.326H110.325H110.324H110.323H110.322H110.321H110.32H110.319H110.318H110.317H110.316H110.316H110.315H110.314H110.313H110.312H110.311H110.31H110.309H110.308H110.307H110.306H110.305H110.304H110.303H110.302H110.302H110.301H110.3H110.299H110.298H110.297H110.296H110.295H110.294H110.293H110.293H110.292H110.291H110.29H110.289H110.288H110.287H110.286H110.286H110.285H110.284H110.283H110.282H110.281H110.28H110.28H110.279H110.278H110.277H110.276H110.275H110.274H110.274H110.273H110.272H110.271H110.27H110.269H110.269H110.268H110.267H110.266H110.265H110.265H110.264H110.263H110.262H110.261H110.261H110.26H110.259H110.258H110.257H110.256H110.256H110.255H110.254H110.253H110.253H110.252H110.251H110.25H110.249H110.249H110.248H110.247H110.246H110.245H110.245H110.244H110.243H110.242H110.242H110.241H110.24H110.239H110.238H110.238H110.237H110.236H110.235H110.235H110.234H110.233H110.232H110.232H110.231H110.23H110.229H110.229H110.228H110.227H110.226H110.226H110.225H110.224H110.223H110.222H110.222H110.221H110.22H110.219H110.219H110.218H110.217H110.216H110.216H110.215H110.214H110.213H110.213H110.212H110.211H110.21H110.21H110.209H110.208H110.207H110.207H110.206H110.205H110.205H110.204H110.203H110.202H110.202H110.201H110.2H110.199H110.199H110.198H110.197H110.196H110.196H110.195H110.194H110.193H110.193H110.192H110.191H110.19H110.19H110.189H110.188H110.187H110.187H110.186H110.185H110.184H110.183H110.183H110.182H110.181H110.18H110.18H110.179H110.178H110.177H110.177H110.176H110.175H110.174H110.174H110.173H110.172H110.171H110.17H110.17H110.169H110.168H110.167H110.167H110.166H110.165H110.164H110.163H110.163H110.162H110.161H110.16H110.16H110.159H110.158H110.157H110.156H110.156H110.155H110.154H110.153H110.152H110.152H110.151H110.15H110.149H110.148H110.148H110.147H110.146H110.145H110.144H110.143H110.143H110.142H110.141H110.14H110.139H110.139H110.138H110.137H110.136H110.135H110.134H110.134H110.133H110.132H110.131H110.13H110.129H110.128H110.128H110.127H110.126H110.125H110.124H110.123H110.122H110.121H110.121H110.12H110.119H110.118H110.117H110.116H110.115H110.114H110.113H110.113H110.112H110.111H110.11H110.109H110.108H110.107H110.106H110.105H110.104H110.103H110.103H110.102H110.101H110.1H110.099H110.098H110.097H110.096H110.095H110.094H110.093H110.092H110.091H110.09H110.089H110.088H110.087H110.086H110.085H110.084H110.083H110.082H110.081H110.08H110.079H110.078H110.077H110.076H110.075H110.074H110.073H110.072H110.071H110.07H110.069H110.068H110.067H110.066H110.065H110.064H110.063H110.062H110.061H110.059H110.058H110.057H110.056H110.055H110.054H110.053H110.052H110.051H110.05H110.049H110.047H110.046H110.045H110.044H110.043H110.042H110.041H110.039H110.038H110.037H110.036H110.035H110.034H110.032H110.031H110.03H110.029H110.028H110.027H110.025H110.024H110.023H110.022H110.02H110.019H110.018H110.017H110.016H110.014H110.013H110.012H110.011H110.009H110.008H110.007H110.005H110.004H110.003H110.002H110H109.999H109.998H109.996H109.995H109.994H109.992H109.991H109.99C109.199 152.323 108.404 152.323 107.613 152.068H107.612H107.611H107.61H107.608H107.607H107.606H107.604H107.603H107.602H107.601H107.599H107.598H107.597H107.595H107.594H107.593H107.592H107.59H107.589H107.588H107.587H107.585H107.584H107.583H107.582H107.581H107.579H107.578H107.577H107.576H107.575H107.573H107.572H107.571H107.57H107.569H107.567H107.566H107.565H107.564H107.563H107.562H107.561H107.559H107.558H107.557H107.556H107.555H107.554H107.553H107.552H107.55H107.549H107.548H107.547H107.546H107.545H107.544H107.543H107.542H107.541H107.54H107.539H107.538H107.536H107.535H107.534H107.533H107.532H107.531H107.53H107.529H107.528H107.527H107.526H107.525H107.524H107.523H107.522H107.521H107.52H107.519H107.518H107.517H107.516H107.515H107.514H107.513H107.512H107.511H107.51H107.509H107.508H107.507H107.507H107.506H107.505H107.504H107.503H107.502H107.501H107.5H107.499H107.498H107.497H107.496H107.495H107.494H107.494H107.493H107.492H107.491H107.49H107.489H107.488H107.487H107.486H107.485H107.485H107.484H107.483H107.482H107.481H107.48H107.479H107.478H107.478H107.477H107.476H107.475H107.474H107.473H107.472H107.472H107.471H107.47H107.469H107.468H107.467H107.467H107.466H107.465H107.464H107.463H107.462H107.462H107.461H107.46H107.459H107.458H107.457H107.457H107.456H107.455H107.454H107.453H107.453H107.452H107.451H107.45H107.449H107.449H107.448H107.447H107.446H107.445H107.445H107.444H107.443H107.442H107.441H107.441H107.44H107.439H107.438H107.438H107.437H107.436H107.435H107.434H107.434H107.433H107.432H107.431H107.431H107.43H107.429H107.428H107.428H107.427H107.426H107.425H107.424H107.424H107.423H107.422H107.421H107.421H107.42H107.419H107.418H107.418H107.417H107.416H107.415H107.415H107.414H107.413H107.412H107.412H107.411H107.41H107.409H107.409H107.408H107.407H107.406H107.406H107.405H107.404H107.403H107.403H107.402H107.401H107.4H107.4H107.399H107.398H107.397H107.397H107.396H107.395H107.394H107.394H107.393H107.392H107.391H107.391H107.39H107.389H107.388H107.388H107.387H107.386H107.385H107.385H107.384H107.383H107.382H107.382H107.381H107.38H107.379H107.379H107.378H107.377H107.376H107.376H107.375H107.374H107.373H107.373H107.372H107.371H107.37H107.37H107.369H107.368H107.367H107.366H107.366H107.365H107.364H107.363H107.363H107.362H107.361H107.36H107.36H107.359H107.358H107.357H107.356H107.356H107.355H107.354H107.353H107.352H107.352H107.351H107.35H107.349H107.349H107.348H107.347H107.346H107.345H107.345H107.344H107.343H107.342H107.341H107.34H107.34H107.339H107.338H107.337H107.336H107.336H107.335H107.334H107.333H107.332H107.331H107.331H107.33H107.329H107.328H107.327H107.326H107.326H107.325H107.324H107.323H107.322H107.321H107.32H107.32H107.319H107.318H107.317H107.316H107.315H107.314H107.314H107.313H107.312H107.311H107.31H107.309H107.308H107.307H107.306H107.305H107.305H107.304H107.303H107.302H107.301H107.3H107.299H107.298H107.297H107.296H107.295H107.294H107.294H107.293H107.292H107.291H107.29H107.289H107.288H107.287H107.286H107.285H107.284H107.283H107.282H107.281H107.28H107.279H107.278H107.277H107.276H107.275H107.274H107.273H107.272H107.271H107.27H107.269H107.268H107.267H107.266H107.265H107.264H107.263H107.262H107.261H107.26H107.259H107.258H107.257H107.256H107.255H107.253H107.252H107.251H107.25H107.249H107.248H107.247H107.246H107.245H107.244H107.243H107.241H107.24H107.239H107.238H107.237H107.236H107.235H107.233H107.232H107.231H107.23H107.229H107.228H107.227H107.225H107.224H107.223H107.222H107.221H107.219H107.218H107.217H107.216H107.215H107.213H107.212H107.211H107.21H107.208H107.207H107.206H107.205H107.203H107.202H107.201H107.2H107.198H107.197H107.196H107.194H107.193H107.192H107.191H107.189H107.188H107.187H107.185H107.184H107.183H107.181H107.18H107.179H107.177H107.176H107.174H107.173H107.172H107.17H107.169H107.168H107.166H107.165H107.163H107.162H107.16H107.159H107.158H107.156H107.155H107.153H107.152H107.15H107.149H107.147H107.146H107.144H107.143C106.955 152.068 106.78 151.98 106.666 151.922C106.66 151.919 106.654 151.917 106.648 151.914C106.506 151.843 106.434 151.812 106.377 151.812H106.377H106.377H106.377H106.377H106.377H106.377H106.377H106.377H106.377H106.377H106.377H106.377H106.377H106.376H106.376H106.376H106.376H106.376H106.376H106.376H106.376H106.375H106.375H106.375H106.375H106.375H106.375H106.374H106.374H106.374H106.374H106.374H106.373H106.373H106.373H106.373H106.373H106.372H106.372H106.372H106.372H106.371H106.371H106.371H106.371H106.37H106.37H106.37H106.369H106.369H106.369H106.369H106.368H106.368H106.368H106.367H106.367H106.367H106.366H106.366H106.366H106.365H106.365H106.364H106.364H106.364H106.363H106.363H106.363H106.362H106.362H106.361H106.361H106.361H106.36H106.36H106.359H106.359H106.358H106.358H106.357H106.357H106.357H106.356H106.356H106.355H106.355H106.354H106.354H106.353H106.353H106.352H106.352H106.351H106.351H106.35H106.35H106.349H106.348H106.348H106.347H106.347H106.346H106.346H106.345H106.345H106.344H106.343H106.343H106.342H106.342H106.341H106.34H106.34H106.339H106.339H106.338H106.337H106.337H106.336H106.335H106.335H106.334H106.334H106.333H106.332H106.332H106.331H106.33H106.33H106.329H106.328H106.327H106.327H106.326H106.325H106.325H106.324H106.323H106.323H106.322H106.321H106.32H106.32H106.319H106.318H106.317H106.317H106.316H106.315H106.314H106.314H106.313H106.312H106.311H106.31H106.31H106.309H106.308H106.307H106.306H106.306H106.305H106.304H106.303H106.302H106.302H106.301H106.3H106.299H106.298H106.297H106.296H106.296H106.295H106.294H106.293H106.292H106.291H106.29H106.289H106.289H106.288H106.287H106.286H106.285H106.284H106.283H106.282H106.281H106.28H106.28H106.279H106.278H106.277H106.276H106.275H106.274H106.273H106.272H106.271H106.27H106.269H106.268H106.267H106.266H106.265H106.264H106.263H106.262H106.261H106.26H106.259H106.258H106.257H106.256H106.255H106.254H106.253H106.252H106.251H106.25H106.249H106.248H106.247H106.246H106.245H106.244H106.243H106.242H106.241H106.24H106.239H106.238H106.237H106.235H106.234H106.233H106.232H106.231H106.23H106.229H106.228H106.227H106.226H106.225H106.223H106.222H106.221H106.22H106.219H106.218H106.217H106.216H106.215H106.213H106.212H106.211H106.21H106.209H106.208H106.207H106.205H106.204H106.203H106.202H106.201H106.2H106.198H106.197H106.196H106.195H106.194H106.193H106.191H106.19H106.189H106.188H106.187H106.185H106.184H106.183H106.182H106.181H106.179H106.178H106.177H106.176H106.175H106.173H106.172H106.171H106.17H106.168H106.167H106.166H106.165H106.163H106.162H106.161H106.16H106.158H106.157H106.156H106.155H106.153H106.152H106.151H106.15H106.148H106.147H106.146H106.144H106.143H106.142H106.141H106.139H106.138H106.137H106.135H106.134H106.133H106.132H106.13H106.129H106.128H106.126H106.125H106.124H106.122H106.121H106.12H106.118H106.117H106.116H106.115H106.113H106.112H106.111H106.109H106.108H106.107H106.105H106.104H106.103H106.101H106.1H106.098H106.097H106.096H106.094H106.093H106.092H106.09H106.089H106.088H106.086H106.085H106.084H106.082H106.081H106.079H106.078H106.077H106.075H106.074H106.073H106.071H106.07H106.068H106.067H106.066H106.064H106.063H106.061H106.06H106.059H106.057H106.056H106.054H106.053H106.052H106.05H106.049H106.047H106.046H106.045H106.043H106.042H106.04H106.039H106.037H106.036H106.035H106.033H106.032H106.03H106.029H106.028H106.026H106.025H106.023H106.022H106.02H106.019H106.018H106.016H106.015H106.013H106.012H106.01H106.009H106.007H106.006H106.005H106.003H106.002H106H105.999H105.997H105.996H105.994H105.993H105.991H105.99H105.989H105.987H105.986H105.984H105.983H105.981H105.98H105.978H105.977H105.975H105.974H105.972H105.971H105.97H105.968H105.967H105.965H105.964H105.962H105.961H105.959H105.958H105.956H105.955H105.953H105.952H105.95H105.949H105.947H105.946H105.944H105.943H105.942H105.94H105.939H105.937H105.936H105.934H105.933H105.931H105.93H105.928H105.927H105.925H105.924H105.922H105.921H105.919H105.918H105.916H105.915H105.913H105.912H105.91H105.909H105.907H105.906H105.904H105.903H105.901H105.9H105.898H105.897H105.895H105.894H105.892H105.891H105.889H105.888H105.886H105.885H105.883H105.882H105.88H105.879H105.877H105.876H105.874H105.873H105.871H105.87H105.869H105.867C105.664 151.812 105.486 151.715 105.377 151.643Z" fill="black" stroke="black" stroke-width="0.5"/>
</svg>
