<svg width="227" height="200" viewBox="0 0 227 200" fill="none" xmlns="http://www.w3.org/2000/svg">
<path d="M113.558 119.241C146.35 119.241 173.179 92.4114 173.179 59.6207C173.179 26.8291 146.349 0 113.558 0C80.7675 0 53.9375 26.83 53.9375 59.6207C53.9375 92.4123 80.7675 119.241 113.558 119.241Z" fill="#535353"/>
<path d="M0 194.577C0 197.559 2.43909 199.998 5.42082 199.998H221.418C224.399 199.998 226.838 197.559 226.838 194.577C226.838 157.178 198.925 124.926 161.796 120.048C160.44 119.777 159.086 120.318 157.731 121.131C145.263 130.347 129.815 135.497 113.555 135.497C97.2942 135.497 81.8466 130.349 69.1085 120.863C68.0251 120.05 66.6695 119.779 65.0434 119.779C27.9162 124.928 0.000928668 157.177 0.000928668 194.578L0 194.577Z" fill="#535353"/>
</svg>
