<svg width="160" height="200" viewBox="0 0 160 200" fill="none" xmlns="http://www.w3.org/2000/svg">
<path fill-rule="evenodd" clip-rule="evenodd" d="M35.5555 26.6666C35.5555 11.9385 47.494 0 62.2221 0H97.7775C112.506 0 124.444 11.9385 124.444 26.6666V31.111H151.111C156.019 31.111 160 35.0912 160 39.9999C160 44.9086 156.019 48.8888 151.111 48.8888H8.88887C3.98013 48.8888 0 44.9086 0 39.9999C0 35.0912 3.98013 31.111 8.88887 31.111H35.5555V26.6666ZM53.3332 31.111H106.666V26.6666C106.666 21.7579 102.686 17.7777 97.7775 17.7777H62.2221C57.3133 17.7777 53.3332 21.7579 53.3332 26.6666V31.111Z" fill="#CF5050"/>
<path d="M142.449 63.3652C147.345 63.7164 151.032 67.9683 150.683 72.8651L143.369 175.234C142.373 189.189 130.76 200 116.77 200H43.2113C29.2212 200 17.6083 189.189 16.6122 175.234L9.30049 72.8651C8.9493 67.9683 12.6358 63.7162 17.5326 63.3652C22.4294 63.016 26.6835 66.7025 27.0325 71.5993L34.3442 173.969C34.6776 178.621 38.5466 182.225 43.2113 182.225H116.77C121.435 182.225 125.304 178.621 125.637 173.969L132.949 71.5993C133.298 66.7025 137.552 63.0162 142.449 63.3652H142.449Z" fill="#CF5050"/>
<path d="M62.2092 80.0007C67.1179 80.0007 71.098 83.9809 71.098 88.8896V146.667C71.098 151.576 67.1179 155.556 62.2092 155.556C57.3004 155.556 53.3203 151.576 53.3203 146.667V88.8896C53.3203 83.9809 57.3004 80.0007 62.2092 80.0007Z" fill="#CF5050"/>
<path d="M106.676 88.8896C106.676 83.9809 102.696 80.0007 97.7873 80.0007C92.8786 80.0007 88.8984 83.9809 88.8984 88.8896V146.667C88.8984 151.576 92.8786 155.556 97.7873 155.556C102.696 155.556 106.676 151.576 106.676 146.667V88.8896Z" fill="#CF5050"/>
</svg>
