<svg width="200" height="200" viewBox="0 0 200 200" fill="none" xmlns="http://www.w3.org/2000/svg">
<path d="M100 12.8866C148.028 12.8866 187.116 51.9723 187.116 100.003C187.116 148.034 148.031 187.119 100 187.119C51.9694 187.119 12.8836 148.034 12.8836 100.003C12.8836 51.9723 51.9694 12.8866 100 12.8866ZM100 0C44.767 0 0 44.767 0 100C0 155.233 44.767 200 100 200C155.233 200 200 155.233 200 100C200 44.767 155.233 0 100 0Z" fill="#616161"/>
<path d="M133.7 75.3496C133.7 80.2327 132.953 84.3563 131.496 87.6954C130.014 91.0597 128.224 93.9063 126.084 96.2397L116.78 105.543C114.138 108.185 111.947 110.878 110.221 113.623C109.384 114.937 108.753 116.343 108.328 117.85C108.288 117.993 108.249 118.133 108.212 118.262C107.156 121.663 103.985 124.151 100.223 124.151C95.5977 124.151 91.8608 120.4 91.8608 115.789C91.8608 114.926 91.9896 114.088 92.2336 113.301C92.2336 113.276 92.2336 113.276 92.2589 113.25C92.466 112.71 92.6961 112.194 92.9424 111.679C93.4716 110.569 94.0768 109.513 94.7465 108.521C96.0214 106.639 97.4388 104.835 99.0129 103.109C100.585 101.383 102.248 99.6687 103.974 97.929L108.395 93.5084C110.431 91.4719 112.157 89.2306 113.589 86.7939C115.006 84.3592 115.715 81.2526 115.715 77.4902C115.715 72.607 114.362 68.8168 111.669 66.1246C108.977 63.4323 105.187 62.0792 100.304 62.0792C94.3115 62.0792 89.7872 63.4323 86.7339 66.1246C84.7502 67.8782 83.1003 70.3634 81.7978 73.5738C80.4447 76.9381 76.9263 78.908 73.3319 78.4316C69.1944 77.877 66.3086 74.3332 66.3086 70.4923C66.3086 69.4752 66.5157 68.4166 66.953 67.4133C67.1854 66.8725 67.4178 66.357 67.6755 65.8278C69.4014 62.2195 71.721 59.0372 74.6093 56.3055C77.5088 53.5602 81.0664 51.4086 85.2914 49.8231C89.5049 48.2514 94.5563 47.4529 100.473 47.4529C111.04 47.4529 119.223 50.0164 125.022 55.146C130.821 60.2868 133.72 67.027 133.72 75.3527L133.7 75.3496Z" fill="#616161"/>
<path d="M108.639 142.931C108.639 148.247 104.328 152.557 99.0126 152.557C93.6946 152.557 89.3867 148.247 89.3867 142.931C89.3867 137.613 93.6945 133.303 99.0126 133.303C104.328 133.303 108.639 137.613 108.639 142.931Z" fill="#616161"/>
</svg>
