<svg width="155" height="200" viewBox="0 0 155 200" fill="none" xmlns="http://www.w3.org/2000/svg">
<path fill-rule="evenodd" clip-rule="evenodd" d="M115.307 2.28918V38.8345H151.946L115.307 2.28918ZM118.821 99.3006C118.202 99.831 117.261 100.096 115.997 100.096H109.92V120.345C109.92 121.52 109.554 122.459 108.821 123.161C108.088 123.863 107.119 124.214 105.912 124.214C104.705 124.214 103.735 123.863 103.002 123.161C102.27 122.459 101.903 121.52 101.903 120.345V100.096H95.8262C94.5613 100.096 93.6206 99.831 93.003 99.3006C92.3847 98.7707 92.0764 97.9613 92.0764 96.8712C92.0764 95.7828 92.3847 94.9796 93.003 94.4641C93.6206 93.9483 94.5613 93.6907 95.8262 93.6907H115.997C117.261 93.6907 118.202 93.9483 118.821 94.4641C119.438 94.9796 119.747 95.7828 119.747 96.8712C119.747 97.9613 119.438 98.7707 118.821 99.3006ZM90.1588 123.203C89.397 123.934 88.5425 124.3 87.5942 124.3C86.588 124.3 85.7119 123.869 84.9651 123.01L77.5517 114.154L70.009 123.01C69.2614 123.869 68.3994 124.3 67.423 124.3C66.4747 124.3 65.6194 123.928 64.8584 123.182C64.0967 122.437 63.7163 121.577 63.7163 120.603C63.7163 119.772 64.018 118.998 64.6214 118.281L72.8968 108.737L64.8369 99.4077C64.2045 98.6628 63.8887 97.8893 63.8887 97.0866C63.8887 96.1126 64.2691 95.2591 65.0309 94.5286C65.7918 93.7978 66.6612 93.4324 67.6385 93.4324C68.6439 93.4324 69.52 93.8623 70.2676 94.7217L77.5517 103.32L84.7927 94.7217C85.4823 93.8623 86.3294 93.4324 87.3356 93.4324C88.3121 93.4324 89.1815 93.7978 89.9432 94.5286C90.7042 95.2591 91.0854 96.1126 91.0854 97.0866C91.0854 97.9179 90.7837 98.6917 90.1803 99.4077L82.1204 108.737L90.3527 118.281C90.9843 118.998 91.3009 119.786 91.3009 120.645C91.3009 121.62 90.9197 122.473 90.1588 123.203ZM62.0142 99.3006C61.3959 99.831 60.4551 100.096 59.1911 100.096H53.1142V120.345C53.1142 121.52 52.7478 122.459 52.0147 123.161C51.282 123.863 50.3122 124.214 49.1054 124.214C47.899 124.214 46.9288 123.863 46.1961 123.161C45.4634 122.459 45.097 121.52 45.097 120.345V100.096H39.0198C37.7549 100.096 36.8146 99.831 36.1966 99.3006C35.5787 98.7707 35.2704 97.9613 35.2704 96.8712C35.2704 95.7828 35.5787 94.9796 36.1966 94.4641C36.8146 93.9483 37.7549 93.6907 39.0198 93.6907H59.1911C60.4551 93.6907 61.3959 93.9483 62.0142 94.4641C62.6321 94.9796 62.9408 95.7828 62.9408 96.8712C62.9408 97.9613 62.6321 98.7707 62.0142 99.3006ZM150.323 46.6509H125.332H111.389C109.225 46.6509 107.471 44.9012 107.471 42.7427V3.90826C107.471 3.89653 107.472 3.88442 107.472 3.87269V0H3.91828C1.75421 0 0 1.74934 0 3.90826V196.092C0 198.25 1.75421 200 3.91828 200H150.323C152.487 200 154.241 198.25 154.241 196.092V46.6509H150.323Z" fill="#1B1B1B"/>
</svg>
