<svg width="216" height="200" viewBox="0 0 216 200" fill="none" xmlns="http://www.w3.org/2000/svg">
<path fill-rule="evenodd" clip-rule="evenodd" d="M38.4607 20.9325V46.1551H23.0764C10.3305 46.1551 0 56.4856 0 69.2315C0 88.031 0 119.661 0 138.461C0 151.207 10.3305 161.537 23.0764 161.537H38.4607V179.068L20.6457 185.006C16.615 186.352 14.4381 190.713 15.7766 194.736C17.1227 198.767 21.4841 200.944 25.5071 199.605L46.1528 192.721L66.7985 199.605C70.8215 200.944 75.1829 198.767 76.5291 194.736C77.8675 190.713 75.6906 186.352 71.6599 185.006L53.8449 179.068V161.537H192.303C205.049 161.537 215.38 151.207 215.38 138.461C215.38 119.661 215.38 88.031 215.38 69.2315C215.38 56.4856 205.049 46.1551 192.303 46.1551H53.8449V20.9325L71.6599 14.9943C75.6906 13.6481 77.8675 9.2867 76.5291 5.26371C75.1829 1.23303 70.8215 -0.943926 66.7985 0.394506L46.1528 7.279L25.5071 0.394506C21.4841 -0.943926 17.1227 1.23303 15.7766 5.26371C14.4381 9.2867 16.615 13.6481 20.6457 14.9943L38.4607 20.9325ZM38.4607 61.5393V146.153H23.0764C18.8303 146.153 15.3843 142.707 15.3843 138.461C15.3843 119.661 15.3843 88.031 15.3843 69.2315C15.3843 64.9854 18.8303 61.5393 23.0764 61.5393H38.4607ZM53.8449 61.5393H192.303C196.549 61.5393 199.996 64.9854 199.996 69.2315C199.996 88.031 199.996 119.661 199.996 138.461C199.996 142.707 196.549 146.153 192.303 146.153H53.8449V61.5393Z" fill="#616161"/>
</svg>
