<svg width="286" height="200" viewBox="0 0 286 200" fill="none" xmlns="http://www.w3.org/2000/svg">
<path d="M175.976 138.438C169.369 138.438 164.264 143.543 164.264 150.15V176.577H23.7237V23.4234H164.264V49.8504C164.264 56.457 169.369 61.5621 175.976 61.5621C182.583 61.5621 187.688 56.4573 187.688 49.8504V11.7117C187.688 5.1051 182.583 0 175.976 0H11.7117C5.1051 0 0 5.10483 0 11.7117V188.288C0 194.895 5.10484 200 11.7117 200H175.976C182.583 200 187.688 194.895 187.688 188.288V150.15C187.688 143.543 182.283 138.438 175.976 138.438Z" fill="#616161"/>
<path d="M281.982 91.8905L232.733 42.9432C228.229 38.4395 220.722 38.4395 216.216 42.9432C211.712 47.4468 211.712 54.9541 216.216 59.4602L245.046 88.2901H134.235C127.629 88.2901 122.523 93.395 122.523 100.002C122.523 106.608 127.628 111.714 134.235 111.714H245.647L216.517 140.843C214.115 143.245 213.214 146.247 213.214 149.251C213.214 152.255 214.414 155.257 216.517 157.659C221.021 162.163 228.528 162.163 233.035 157.659L281.984 108.71C286.486 103.905 286.486 96.3971 281.982 91.8916L281.982 91.8905Z" fill="#616161"/>
<path d="M130.993 49.8967C130.771 50.3659 130.56 50.8477 130.371 51.3274C130.524 50.8226 130.736 50.3429 130.993 49.8967Z" fill="#616161"/>
</svg>
