<svg width="155" height="200" viewBox="0 0 155 200" fill="none" xmlns="http://www.w3.org/2000/svg">
<path fill-rule="evenodd" clip-rule="evenodd" d="M121.379 117.292C121.379 118.726 121.272 119.822 121.056 120.581C120.841 121.341 120.453 121.935 119.892 122.365C119.332 122.795 118.491 123.168 117.371 123.483C116.25 123.77 115.007 123.992 113.642 124.149C112.278 124.306 111.006 124.386 109.828 124.386C106.524 124.386 103.657 123.762 101.229 122.516C98.801 121.269 96.9406 119.478 95.6476 117.142C94.3546 114.806 93.708 112.033 93.708 108.823C93.708 105.671 94.3546 102.927 95.6476 100.59C96.9406 98.2548 98.7791 96.4566 101.165 95.195C103.55 93.9342 106.337 93.3034 109.527 93.3034C111.537 93.3034 113.341 93.5399 114.936 94.0128C116.53 94.4856 118.017 95.2098 119.396 96.1838C119.885 96.5277 120.237 96.9006 120.453 97.3015C120.668 97.7033 120.775 98.2192 120.775 98.8492C120.775 99.738 120.531 100.49 120.043 101.106C119.554 101.723 118.966 102.031 118.276 102.031C117.816 102.031 117.42 101.966 117.091 101.837C116.76 101.708 116.336 101.487 115.819 101.171C114.756 100.598 113.757 100.182 112.823 99.924C111.889 99.666 110.876 99.5371 109.785 99.5371C107.054 99.5371 105.022 100.297 103.686 101.816C102.35 103.335 101.682 105.671 101.682 108.823C101.682 112.062 102.378 114.462 103.772 116.024C105.166 117.587 107.299 118.367 110.173 118.367C111.552 118.367 112.916 118.224 114.268 117.937V112.305H111.164C110.216 112.305 109.483 112.069 108.966 111.596C108.449 111.123 108.19 110.457 108.19 109.597C108.19 108.737 108.449 108.071 108.966 107.598C109.483 107.125 110.216 106.889 111.164 106.889H118.276C119.224 106.889 119.978 107.154 120.538 107.684C121.099 108.215 121.379 108.924 121.379 109.812V117.292ZM92.0702 98.4623L80.6915 121.892C80.3177 122.666 79.7574 123.261 79.0106 123.676C78.263 124.091 77.4589 124.3 76.5969 124.3C75.7353 124.3 74.9301 124.091 74.1833 123.676C73.4361 123.261 72.8754 122.666 72.5027 121.892L61.1237 98.4623C60.8937 98.0043 60.7792 97.5024 60.7792 96.9576C60.7792 95.9837 61.2099 95.1594 62.0723 94.4856C62.9343 93.8126 63.8962 93.4754 64.96 93.4754C65.6497 93.4754 66.2883 93.6473 66.8776 93.9913C67.4662 94.3352 67.9191 94.8511 68.2353 95.5389L76.7262 113.853L85.1744 95.5389C85.4898 94.8511 85.935 94.3352 86.5106 93.9913C87.085 93.6473 87.7174 93.4754 88.407 93.4754C89.441 93.4754 90.3744 93.8052 91.2086 94.4642C92.0412 95.1239 92.4581 95.9548 92.4581 96.9576C92.4581 97.4454 92.3288 97.9464 92.0702 98.4623ZM57.9773 119.85C56.9146 121.298 55.4277 122.416 53.5167 123.204C51.6058 123.992 49.3857 124.386 46.858 124.386C44.5584 124.386 42.4249 124.134 40.4571 123.633C38.4886 123.132 36.8723 122.437 35.6082 121.548C35.1196 121.176 34.7678 120.789 34.5523 120.388C34.3368 119.987 34.229 119.471 34.229 118.84C34.229 117.98 34.4876 117.235 35.0052 116.604C35.522 115.974 36.1254 115.659 36.8151 115.659C37.1885 115.659 37.5482 115.716 37.8926 115.831C38.2378 115.945 38.6684 116.16 39.1856 116.475C40.3635 117.135 41.5346 117.608 42.6984 117.894C43.8621 118.181 45.1767 118.324 46.6421 118.324C48.3371 118.324 49.6227 118.074 50.4996 117.572C51.3762 117.071 51.8142 116.332 51.8142 115.358C51.8142 114.699 51.4048 114.132 50.5858 113.66C49.7669 113.187 48.2078 112.721 45.9098 112.262C43.0647 111.66 40.8376 110.944 39.2287 110.113C37.6191 109.282 36.4918 108.301 35.8453 107.168C35.1988 106.036 34.8755 104.668 34.8755 103.062C34.8755 101.229 35.4209 99.566 36.5134 98.0754C37.605 96.5856 39.1061 95.4174 41.0174 94.5716C42.928 93.7267 45.0756 93.3034 47.461 93.3034C49.5581 93.3034 51.4267 93.5332 53.0642 93.9913C54.702 94.4501 56.196 95.1669 57.5467 96.1408C58.0639 96.5136 58.4306 96.908 58.6457 97.323C58.8612 97.7389 58.9694 98.2473 58.9694 98.8492C58.9694 99.709 58.717 100.455 58.2147 101.085C57.712 101.716 57.1157 102.031 56.426 102.031C56.0522 102.031 55.7074 101.981 55.3916 101.88C55.075 101.78 54.6299 101.558 54.0555 101.214C53.9117 101.128 53.5022 100.906 52.8271 100.547C52.1516 100.189 51.3617 99.9025 50.4565 99.6875C49.5518 99.4726 48.5668 99.3651 47.5041 99.3651C46.0391 99.3651 44.8605 99.6445 43.9694 100.203C43.0788 100.762 42.6337 101.501 42.6337 102.417C42.6337 102.962 42.7912 103.406 43.1078 103.75C43.424 104.094 44.0133 104.431 44.875 104.76C45.737 105.09 47.0155 105.427 48.711 105.771C51.4694 106.373 53.6386 107.097 55.2192 107.942C56.7991 108.788 57.9201 109.769 58.5811 110.887C59.2417 112.004 59.5724 113.323 59.5724 114.842C59.5724 116.733 59.0403 118.403 57.9773 119.85ZM151.05 46.6509H126.059H112.115C109.952 46.6509 108.197 44.9012 108.197 42.7427V3.90826C108.197 3.89614 108.198 3.88481 108.198 3.87269V0H4.64484C2.48117 0 0.726562 1.74973 0.726562 3.90826V196.092C0.726562 198.25 2.48117 200 4.64484 200H151.05C153.213 200 154.968 198.25 154.968 196.092V46.6509H151.05ZM116.034 2.28934V38.8347H152.672L116.034 2.28934Z" fill="#1B1B1B"/>
</svg>
