<svg width="170" height="200" viewBox="0 0 170 200" fill="none" xmlns="http://www.w3.org/2000/svg">
<path d="M75.4004 147.132L54.2205 172.069C45.7486 182.045 32.1934 182.045 23.7215 172.069C19.4855 168.079 16.9439 161.097 16.9439 154.114C16.9439 147.132 19.4855 141.147 22.8743 136.159L58.4565 94.2639C66.9285 84.2889 80.4836 84.2889 88.9556 94.2639C92.3443 98.254 97.4275 98.254 100.816 94.2639C104.205 90.2739 104.205 84.2889 100.816 80.2989C85.5668 62.3437 60.9981 62.3437 46.5958 80.2989L11.0135 122.194C3.38878 131.172 0 142.144 0 154.114C0 166.084 4.23598 178.054 11.0135 186.035C18.6383 196.01 28.8047 200 38.971 200C49.1374 200 58.4565 196.01 66.0813 187.032L87.2612 162.094C90.65 158.104 90.65 152.119 87.2612 148.129C83.8724 144.139 78.7892 143.142 75.4004 147.132Z" fill="black"/>
<path d="M158.43 13.4663C143.181 -4.48878 118.612 -4.48878 104.21 13.4663L83.0299 38.404C79.6411 42.394 79.6411 48.3791 83.0299 52.3691C86.4186 56.3591 91.5018 56.3591 94.8906 52.3691L116.07 27.4314C124.542 17.4564 138.098 17.4564 146.57 27.4314C149.958 32.419 152.5 39.4015 152.5 46.384C152.5 53.3666 149.958 59.3516 146.57 64.3392L110.987 106.234C102.515 116.209 88.9602 116.209 80.4883 106.234C77.0995 102.244 72.0163 102.244 68.6275 106.234C65.2387 110.224 65.2387 116.209 68.6275 120.2C76.2523 129.177 86.4186 133.167 95.7378 133.167C105.904 133.167 115.223 129.177 122.848 120.2L158.43 78.3042C166.055 69.3267 169.444 58.3541 169.444 46.384C169.444 33.4165 165.208 22.4439 158.43 13.4663Z" fill="black"/>
</svg>
