<svg width="193" height="200" viewBox="0 0 193 200" fill="none" xmlns="http://www.w3.org/2000/svg">
<path d="M162.349 198.905C117.454 213.291 0.953265 81.9374 0.00245242 38.4096C-0.118614 27.4546 4.24272 19.8156 13.0894 15.4809C22.3082 11.2435 30.9865 5.83985 40.096 1.66159C45.9013 -1.15837 50.1741 -0.541223 54.1752 4.68825C65.9452 19.6591 76.1679 32.9705 84.8433 44.6283C88.7174 49.8637 88.7824 54.1276 84.486 59.1178C80.7005 63.615 76.4189 68.0974 72.9877 72.7806C65.706 83.3695 112.166 133.172 121.709 124.151C125.885 120.366 130.754 116.99 135.189 113.418C140.714 109.458 144.995 109.121 150.328 113.595C156.535 118.892 191.444 146.156 192.483 153.107C194.01 163.338 167.266 193.153 162.349 198.905Z" fill="#B7BABD"/>
</svg>
