<svg width="156" height="200" viewBox="0 0 156 200" fill="none" xmlns="http://www.w3.org/2000/svg">
<path fill-rule="evenodd" clip-rule="evenodd" d="M109.552 115.852C110.802 117.386 112.705 118.152 115.263 118.152C116.125 118.152 116.958 118.016 117.763 117.744C118.567 117.472 119.602 117.049 120.866 116.475C121.47 116.16 121.915 115.945 122.203 115.831C122.49 115.716 122.834 115.659 123.237 115.659C123.955 115.659 124.566 115.967 125.069 116.583C125.571 117.2 125.823 117.952 125.823 118.84C125.823 119.442 125.715 119.951 125.5 120.366C125.284 120.782 124.932 121.161 124.444 121.505C121.685 123.426 118.481 124.386 114.832 124.386C111.786 124.386 109.121 123.756 106.837 122.494C104.553 121.233 102.786 119.428 101.536 117.077C100.286 114.728 99.6607 111.976 99.6607 108.823C99.6607 105.7 100.286 102.962 101.536 100.612C102.786 98.2622 104.553 96.4566 106.837 95.195C109.121 93.9342 111.786 93.3034 114.832 93.3034C118.481 93.3034 121.685 94.264 124.444 96.1838C124.932 96.5277 125.284 96.9006 125.5 97.3015C125.715 97.7033 125.823 98.2192 125.823 98.8492C125.823 99.738 125.571 100.49 125.069 101.106C124.566 101.723 123.955 102.031 123.237 102.031C122.806 102.031 122.418 101.966 122.073 101.837C121.728 101.708 121.326 101.501 120.866 101.214C119.861 100.612 118.912 100.182 118.022 99.924C117.131 99.666 116.212 99.5371 115.263 99.5371C112.705 99.5371 110.802 100.304 109.552 101.837C108.303 103.371 107.678 105.7 107.678 108.823C107.678 111.976 108.303 114.319 109.552 115.852ZM93.8856 117.056C92.6498 119.392 90.8901 121.198 88.6057 122.473C86.3213 123.748 83.6416 124.386 80.5674 124.386C77.4641 124.386 74.7703 123.748 72.4859 122.473C70.2016 121.198 68.4411 119.392 67.206 117.056C65.9702 114.72 65.3527 111.976 65.3527 108.823C65.3527 105.671 65.9702 102.927 67.206 100.59C68.4411 98.2548 70.2016 96.4566 72.4859 95.195C74.7703 93.9342 77.4641 93.3034 80.5674 93.3034C83.6706 93.3034 86.3644 93.9342 88.6488 95.195C90.9332 96.4566 92.6854 98.2548 93.9071 100.59C95.1285 102.927 95.7389 105.671 95.7389 108.823C95.7389 111.976 95.1206 114.72 93.8856 117.056ZM59.4698 116.97C58.1909 119.248 56.3375 120.989 53.9094 122.193C51.4812 123.397 48.5719 123.999 45.1818 123.999H36.4754C35.2968 123.999 34.3916 123.684 33.7596 123.053C33.1276 122.423 32.8114 121.52 32.8114 120.345V97.3445C32.8114 96.1697 33.1276 95.2669 33.7596 94.6361C34.3916 94.0061 35.2968 93.6903 36.4754 93.6903H45.1818C48.5437 93.6903 51.4381 94.2996 53.8667 95.5174C56.2944 96.736 58.1552 98.4772 59.4482 100.741C60.7413 103.005 61.3878 105.7 61.3878 108.823C61.3878 111.976 60.7479 114.691 59.4698 116.97ZM151.291 46.6513H126.301H112.358C110.194 46.6513 108.439 44.9012 108.439 42.7431V3.90826C108.439 3.89653 108.44 3.88481 108.44 3.87269V0H4.88703C2.72296 0 0.96875 1.74973 0.96875 3.90826V196.092C0.96875 198.25 2.72296 200 4.88703 200H151.291C153.456 200 155.21 198.25 155.21 196.092V46.6513H151.291ZM116.276 2.28934V38.8347H152.915L116.276 2.28934ZM44.6215 100.053H40.7424V117.636H44.6215C47.5806 117.636 49.8003 116.913 51.2802 115.465C52.7602 114.018 53.4999 111.804 53.4999 108.823C53.4999 105.843 52.7602 103.636 51.2802 102.203C49.8003 100.77 47.5806 100.053 44.6215 100.053ZM80.5675 99.3653C78.2683 99.3653 76.4729 100.161 75.1799 101.751C73.8865 103.342 73.2403 105.7 73.2403 108.823C73.2403 111.948 73.8865 114.312 75.1799 115.917C76.4729 117.522 78.2683 118.324 80.5675 118.324C82.8656 118.324 84.6617 117.514 85.9551 115.895C87.2482 114.276 87.8943 111.919 87.8943 108.823C87.8943 105.728 87.2403 103.378 85.9332 101.773C84.6253 100.168 82.837 99.3653 80.5675 99.3653Z" fill="#1B1B1B"/>
</svg>
