<svg width="200" height="200" viewBox="0 0 200 200" fill="none" xmlns="http://www.w3.org/2000/svg">
<path d="M49.8787 104.286C53.7066 100.487 58.8213 98.2637 64.2103 98.056C69.5994 97.8483 74.87 99.6715 78.9788 103.165L108.108 128.129L128.108 110.586C132.202 107.008 137.502 105.116 142.938 105.292C148.373 105.468 153.539 107.7 157.393 111.536L200.001 153.929V21.4286C200.001 15.7454 197.743 10.295 193.724 6.2763C189.706 2.25765 184.255 0 178.572 0H21.4286C15.7454 0 10.295 2.25765 6.27631 6.2763C2.25766 10.295 0 15.7454 0 21.4286V154.186L49.8787 104.286ZM114.286 28.5715C119.937 28.5715 125.461 30.2472 130.16 33.3867C134.858 36.5262 138.52 40.9884 140.683 46.2092C142.845 51.43 143.411 57.1747 142.309 62.7171C141.206 68.2594 138.485 73.3504 134.489 77.3462C130.493 81.342 125.402 84.0631 119.86 85.1656C114.318 86.268 108.573 85.7022 103.352 83.5397C98.1315 81.3772 93.6692 77.7151 90.5298 73.0165C87.3903 68.318 85.7146 62.794 85.7146 57.143C85.7146 49.5654 88.7248 42.2981 94.083 36.9399C99.4412 31.5817 106.708 28.5715 114.286 28.5715Z" fill="#73777B"/>
<path d="M147.286 121.671C146.004 120.383 144.279 119.631 142.462 119.57C140.645 119.509 138.873 120.143 137.508 121.343L119.065 137.543L135.6 151.721C136.353 152.318 136.978 153.061 137.437 153.905C137.896 154.749 138.18 155.677 138.272 156.633C138.364 157.589 138.262 158.554 137.973 159.47C137.683 160.386 137.212 161.234 136.587 161.964C135.962 162.694 135.197 163.29 134.336 163.717C133.476 164.144 132.538 164.393 131.579 164.449C130.62 164.505 129.659 164.367 128.755 164.043C127.85 163.719 127.02 163.216 126.315 162.564L69.686 113.993C68.3188 112.822 66.5602 112.211 64.7617 112.281C62.9633 112.351 61.2577 113.098 59.9859 114.371L0 174.386V178.572C0 184.255 2.25766 189.705 6.27631 193.724C10.295 197.743 15.7454 200 21.4286 200H178.572C184.255 200 189.706 197.743 193.724 193.724C197.743 189.705 200.001 184.255 200.001 178.572V174.072L147.286 121.671Z" fill="#73777B"/>
</svg>
