<svg width="200" height="200" viewBox="0 0 200 200" fill="none" xmlns="http://www.w3.org/2000/svg">
<path d="M190.9 100.002C188.49 100.005 186.179 100.964 184.475 102.67C182.772 104.375 181.815 106.687 181.815 109.097V163.639C181.807 168.458 179.889 173.078 176.481 176.486C173.074 179.894 168.454 181.812 163.634 181.819H36.361C31.5416 181.812 26.9217 179.894 23.5138 176.486C20.1059 173.078 18.1881 168.458 18.1805 163.639V36.3658C18.1881 31.5463 20.1059 26.9264 23.5138 23.5186C26.9217 20.1107 31.5416 18.1928 36.361 18.1853H90.9026C92.1211 18.2247 93.3351 18.0188 94.4724 17.5797C95.6098 17.1406 96.6472 16.4774 97.5231 15.6294C98.399 14.7814 99.0955 13.7659 99.5711 12.6434C100.047 11.5209 100.292 10.3142 100.292 9.09502C100.292 7.87588 100.047 6.66917 99.5711 5.54664C99.0955 4.42411 98.399 3.40866 97.5231 2.56066C96.6472 1.71265 95.6098 1.0494 94.4724 0.610326C93.3351 0.171251 92.1211 -0.0346834 90.9026 0.00476208H36.361C26.7198 0.0123288 17.4756 3.84564 10.6583 10.663C3.84088 17.4804 0.00756669 26.7246 0 36.3658V163.639C0.00756669 173.28 3.84088 182.524 10.6583 189.342C17.4756 196.159 26.7198 199.992 36.361 200H163.634C173.275 199.992 182.52 196.159 189.337 189.342C196.154 182.524 199.988 173.28 199.995 163.639V109.097C199.993 106.686 199.034 104.374 197.329 102.669C195.623 100.964 193.312 100.005 190.9 100.002Z" fill="#616161"/>
<path d="M197.598 3.08076C197.483 2.95695 197.436 2.78553 197.312 2.67125C197.188 2.55696 197.026 2.49982 196.902 2.38554C196.166 1.69424 195.32 1.13093 194.398 0.718914C193.286 0.24624 192.091 0.00327604 190.883 0.00464442H136.342C133.982 0.0810409 131.744 1.07224 130.102 2.76865C128.459 4.46506 127.541 6.73371 127.541 9.0949C127.541 11.4561 128.459 13.7247 130.102 15.4212C131.744 17.1176 133.982 18.1088 136.342 18.1852H168.941L102.647 84.4884C101.782 85.3271 101.093 86.3296 100.619 87.4373C100.145 88.5451 99.8963 89.7361 99.887 90.941C99.8777 92.1458 100.108 93.3405 100.565 94.4554C101.022 95.5704 101.696 96.5833 102.548 97.4353C103.4 98.2873 104.413 98.9613 105.528 99.4181C106.643 99.8749 107.837 100.105 109.042 100.096C110.247 100.087 111.438 99.838 112.546 99.3641C113.654 98.8902 114.656 98.2007 115.495 97.3357L181.798 31.042V63.6412C181.874 66.0012 182.866 68.2389 184.562 69.8813C186.258 71.5237 188.527 72.442 190.888 72.442C193.249 72.442 195.518 71.5237 197.214 69.8813C198.911 68.2389 199.902 66.0012 199.978 63.6412V9.09966C199.978 7.89316 199.739 6.69867 199.274 5.58546C198.855 4.66502 198.289 3.81903 197.598 3.08076Z" fill="#616161"/>
</svg>
