<svg width="24" height="17" viewBox="0 0 24 17" fill="none" xmlns="http://www.w3.org/2000/svg">
<path d="M14.8004 11.6432C14.2447 11.6432 13.8154 12.0726 13.8154 12.6282V14.8509H1.99527V1.97001H13.8154V4.19264C13.8154 4.74828 14.2447 5.17764 14.8004 5.17764C15.356 5.17764 15.7854 4.7483 15.7854 4.19264V0.985007C15.7854 0.429362 15.356 0 14.8004 0H0.985007C0.429362 0 0 0.429339 0 0.985007V15.8359C0 16.3915 0.429339 16.8209 0.985007 16.8209H14.8004C15.356 16.8209 15.7854 16.3915 15.7854 15.8359V12.6282C15.7854 12.0726 15.3308 11.6432 14.8004 11.6432Z" fill="#616161"/>
<path d="M23.7159 7.72841L19.5738 3.61172C19.195 3.23294 18.5636 3.23294 18.1847 3.61172C17.8059 3.9905 17.8059 4.62189 18.1847 5.00088L20.6094 7.4256H11.2897C10.7341 7.4256 10.3047 7.85494 10.3047 8.41061C10.3047 8.96625 10.734 9.39561 11.2897 9.39561H20.6599L18.21 11.8455C18.0079 12.0476 17.9322 12.3 17.9322 12.5527C17.9322 12.8053 18.0331 13.0578 18.21 13.2599C18.5888 13.6386 19.2202 13.6386 19.5992 13.2599L23.716 9.143C24.0946 8.73886 24.0946 8.10744 23.7158 7.7285L23.7159 7.72841Z" fill="#616161"/>
<path d="M11.0172 4.19666C10.9985 4.23612 10.9807 4.27664 10.9648 4.31698C10.9777 4.27453 10.9955 4.23418 11.0172 4.19666Z" fill="#616161"/>
</svg>
