<svg width="24" height="24" viewBox="0 0 24 24" fill="none" xmlns="http://www.w3.org/2000/svg">
<path d="M12 1.54639C17.7633 1.54639 22.454 6.23668 22.454 12.0004C22.454 17.764 17.7637 22.4543 12 22.4543C6.23632 22.4543 1.54604 17.764 1.54604 12.0004C1.54604 6.23668 6.23632 1.54639 12 1.54639ZM12 0C5.37204 0 0 5.37204 0 12C0 18.628 5.37204 24 12 24C18.628 24 24 18.628 24 12C24 5.37204 18.628 0 12 0Z" fill="#616161"/>
<path d="M16.0441 9.04194C16.0441 9.62791 15.9543 10.1228 15.7795 10.5234C15.6017 10.9272 15.3868 11.2687 15.13 11.5488L14.0136 12.6652C13.6966 12.9822 13.4337 13.3053 13.2266 13.6347C13.126 13.7924 13.0504 13.9611 12.9993 14.142C12.9946 14.1591 12.9899 14.176 12.9855 14.1914C12.8587 14.5996 12.4782 14.8981 12.0268 14.8981C11.4717 14.8981 11.0233 14.448 11.0233 13.8946C11.0233 13.7911 11.0388 13.6905 11.068 13.5961C11.068 13.5931 11.068 13.5931 11.0711 13.59C11.0959 13.5251 11.1235 13.4633 11.1531 13.4014C11.2166 13.2683 11.2892 13.1416 11.3696 13.0226C11.5226 12.7967 11.6927 12.5802 11.8815 12.3731C12.0702 12.166 12.2698 11.9602 12.4769 11.7515L13.0074 11.221C13.2518 10.9766 13.4589 10.7077 13.6306 10.4153C13.8007 10.1231 13.8858 9.75031 13.8858 9.29881C13.8858 8.71284 13.7234 8.25801 13.4003 7.93495C13.0772 7.61186 12.6224 7.44949 12.0365 7.44949C11.3174 7.44949 10.7745 7.61186 10.4081 7.93495C10.17 8.14537 9.97203 8.4436 9.81574 8.82885C9.65337 9.23257 9.23115 9.46895 8.79982 9.41178C8.30332 9.34523 7.95703 8.91998 7.95703 8.45907C7.95703 8.33701 7.98188 8.20999 8.03436 8.08959C8.06225 8.02469 8.09014 7.96283 8.12107 7.89932C8.32817 7.46634 8.60652 7.08446 8.95311 6.75666C9.30105 6.42722 9.72797 6.16903 10.235 5.97876C10.7406 5.79015 11.3468 5.69434 12.0567 5.69434C13.3248 5.69434 14.3067 6.00196 15.0026 6.61751C15.6985 7.23441 16.0464 8.04323 16.0464 9.04232L16.0441 9.04194Z" fill="#616161"/>
<path d="M13.0368 17.1517C13.0368 17.7896 12.5196 18.3068 11.8817 18.3068C11.2435 18.3068 10.7266 17.7896 10.7266 17.1517C10.7266 16.5136 11.2435 15.9963 11.8817 15.9963C12.5196 15.9963 13.0368 16.5135 13.0368 17.1517Z" fill="#616161"/>
</svg>
