<svg width="20" height="20" viewBox="0 0 20 20" fill="none" xmlns="http://www.w3.org/2000/svg">
<path d="M19.6497 18.2998L14.2636 12.8999C15.3608 11.4998 15.9593 9.79994 15.9593 8.00005C15.9593 3.59996 12.3685 0 7.97964 0C3.59077 0 0 3.59996 0 8.00005C0 12.4001 3.59077 16.0001 7.97964 16.0001C9.77502 16.0001 11.4707 15.4001 12.8669 14.3001L18.2531 19.7C18.4526 19.9001 18.7519 20 18.9512 20C19.1508 20 19.45 19.9001 19.6494 19.7C20.0486 19.2999 20.0486 18.6999 19.6496 18.3L19.6497 18.2998ZM1.9951 7.99962C1.9951 4.69966 4.68818 1.99969 7.97972 1.99969C11.2713 1.99969 13.9643 4.69966 13.9643 7.99962C13.9643 11.2996 11.2713 13.9996 7.97972 13.9996C4.68818 13.9996 1.9951 11.2996 1.9951 7.99962Z" fill="#535353"/>
</svg>
