<svg width="200" height="200" viewBox="0 0 200 200" fill="none" xmlns="http://www.w3.org/2000/svg">
<path d="M197.757 2.2414C195.654 0.13988 192.523 -0.557087 189.726 0.463182L5.03283 67.7628C2.00864 68.8654 -0.00273012 71.7372 2.78147e-06 74.9565C0.00152813 78.1744 2.01766 81.0478 5.04181 82.1456L79.9857 109.342L111.71 77.6207C114.271 75.0586 118.422 75.0586 120.984 77.6207C123.546 80.1828 123.546 84.3323 120.984 86.8946L89.9155 117.965L117.854 194.958C118.952 197.982 121.824 199.997 125.043 200H125.048C128.264 200 131.138 197.988 132.237 194.967L199.533 10.2739C200.552 7.48002 199.859 4.34741 197.756 2.24308L197.757 2.2414Z" fill="#6061CF"/>
</svg>
