<svg width="200" height="200" viewBox="0 0 200 200" fill="none" xmlns="http://www.w3.org/2000/svg">
<path d="M197.001 182.998L143.001 128.999C154.002 114.998 160.002 97.9995 160.002 80.0005C160.002 35.9996 124.002 0 80.001 0C35.9998 0 0 35.9996 0 80.0005C0 124.001 35.9998 160.001 80.001 160.001C98.0009 160.001 115.001 154.001 128.999 143.001L182.999 197C185 199.001 187.999 200 189.998 200C191.999 200 194.999 199.001 196.998 197C201 192.999 201 186.999 196.999 183L197.001 182.998ZM20.0022 79.9962C20.0022 46.9966 47.002 19.9969 80.0018 19.9969C113.002 19.9969 140.001 46.9966 140.001 79.9962C140.001 112.996 113.002 139.996 80.0018 139.996C47.002 139.996 20.0022 112.996 20.0022 79.9962Z" fill="#535353"/>
</svg>
