<svg width="162" height="200" viewBox="0 0 162 200" fill="none" xmlns="http://www.w3.org/2000/svg">
<path d="M157.703 37.2085H124.791V4.08791L157.703 37.2085ZM161.765 51.1619V174.418C161.765 188.526 150.363 200 136.344 200L25.4205 199.998C11.4018 199.998 0 188.524 0 174.417V25.5818C0 11.4741 11.4018 0 25.4205 0H110.923V44.1844C110.923 48.0372 114.027 51.1611 117.856 51.1611H161.762L161.765 51.1619ZM104.275 95.0633L85.7868 76.4582C83.0787 73.7329 78.6916 73.7329 75.9835 76.4582L57.4957 95.0633C54.7876 97.7885 54.7876 102.203 57.4957 104.929C60.2038 107.654 64.5908 107.654 67.299 104.929L73.9516 98.2339V155.81C73.9516 159.662 77.0558 162.786 80.8843 162.786C84.7128 162.786 87.8171 159.662 87.8171 155.81V98.2339L94.4697 104.929C95.8238 106.291 97.5972 106.972 99.3721 106.972C101.146 106.972 102.921 106.291 104.275 104.929C106.983 102.203 106.983 97.7886 104.275 95.0633Z" fill="#818181"/>
</svg>
