<svg width="226" height="200" viewBox="0 0 226 200" fill="none" xmlns="http://www.w3.org/2000/svg">
<path d="M207.135 0H18.2664C8.21683 0 0 8.21858 0 18.3139V138.811C0 148.86 8.21858 157.077 18.2664 157.077H81.9944C83.1254 167.615 79.9113 175.847 70.9555 185.488L69.5213 187.045L64.8338 192.092C64.0997 192.884 63.7181 193.887 63.6347 194.919C63.5665 195.674 63.6415 196.447 63.96 197.183C64.7112 198.872 66.4025 200 68.2795 200L157.124 199.998C158.064 199.998 158.956 199.716 159.708 199.216C160.464 198.723 161.079 198.011 161.45 197.144C162.183 195.449 161.84 193.488 160.597 192.127C160.578 192.107 160.57 192.081 160.553 192.063L160.226 191.719L154.686 185.856C152.511 183.553 150.723 181.315 149.181 179.085C144.467 172.255 142.596 165.571 143.276 157.819C143.296 157.579 143.358 157.322 143.383 157.08H207.137C217.185 157.077 225.402 148.86 225.402 138.811V18.3141C225.402 8.21875 217.185 0.000171328 207.136 0.000171328L207.135 0ZM46.182 130.678C46.182 133.274 44.0818 135.375 41.4858 135.375C38.89 135.375 36.7896 133.274 36.7896 130.678V81.9591C36.7896 79.3632 38.8897 77.2629 41.4858 77.2629C44.0816 77.2629 46.182 79.363 46.182 81.9591V130.678ZM127.574 130.678V81.9591C127.574 79.3632 129.674 77.2629 132.27 77.2629C134.866 77.2629 136.967 79.363 136.967 81.9591V130.678C136.967 133.274 134.866 135.375 132.27 135.375C129.675 135.375 127.574 133.274 127.574 130.678ZM91.5699 130.678C91.5699 133.274 89.4698 135.375 86.8737 135.375C84.2779 135.375 82.1775 133.274 82.1775 130.678V67.8704C82.1775 65.2746 84.2777 63.1742 86.8737 63.1742C89.4695 63.1742 91.5699 65.2744 91.5699 67.8704V130.678ZM182.359 130.678C182.359 133.274 180.259 135.375 177.663 135.375C175.067 135.375 172.967 133.274 172.967 130.678V67.8704C172.967 65.2746 175.067 63.1742 177.663 63.1742C180.259 63.1742 182.359 65.2744 182.359 67.8704V130.678ZM179.46 46.9664L134.063 65.7504C132.789 66.2733 131.343 66.2188 130.123 65.5903L86.87 43.4405L43.6213 65.5903C42.9331 65.9429 42.2041 66.1081 41.4836 66.1081C39.7769 66.1081 38.1315 65.1764 37.3021 63.5531C36.1183 61.2417 37.0312 58.4126 39.3375 57.234L84.7255 33.9888C86.0745 33.3007 87.6603 33.3007 89.0093 33.9888L132.474 56.2441L175.861 38.2913C178.268 37.3 181.007 38.4326 181.996 40.8326C182.987 43.2291 181.851 45.9766 179.456 46.966L179.46 46.9664Z" fill="#616161"/>
</svg>
