<svg width="294" height="200" viewBox="0 0 294 200" fill="none" xmlns="http://www.w3.org/2000/svg">
<path fill-rule="evenodd" clip-rule="evenodd" d="M0 18.3395V181.661C0.00430739 186.523 1.93788 191.185 5.37626 194.624C8.81464 198.062 13.4769 199.996 18.3395 200H275.001C279.863 199.996 284.526 198.062 287.964 194.624C291.402 191.185 293.336 186.523 293.34 181.661V18.3395C293.342 15.4829 292.674 12.6658 291.388 10.1148L168.078 111.836C161.686 117.108 153.651 119.975 145.366 119.941C137.081 119.906 129.069 116.972 122.722 111.647L1.89348 10.2515C0.64917 12.7662 0.00123533 15.5338 0 18.3395ZM13.9083 0.543325C15.3575 0.181254 16.8457 -0.00122116 18.3395 6.14989e-06H275.004C276.421 0.00049336 277.832 0.165348 279.211 0.491268L158.425 100.133C154.788 103.195 150.182 104.865 145.429 104.845C140.675 104.825 136.083 103.117 132.472 100.026L13.9083 0.543325Z" fill="#B7BABD"/>
</svg>
