<svg width="200" height="200" viewBox="0 0 200 200" fill="none" xmlns="http://www.w3.org/2000/svg">
<path d="M85.7143 0C80.4378 0 76.1912 4.24845 76.1912 9.5231V22.619C71.2634 24.1303 66.5316 26.0453 62.0541 28.4218L52.8282 19.1959C49.0979 15.4656 43.0925 15.4656 39.3603 19.1959L19.1959 39.3603C15.4656 43.0905 15.4656 49.096 19.1959 52.8282L28.4218 62.0541C26.0434 66.5316 24.13 71.2634 22.619 76.1912H9.5231C4.24666 76.1912 0 80.4396 0 85.7143V114.286C0 119.562 4.24845 123.809 9.5231 123.809H22.619C24.1303 128.737 26.0453 133.468 28.4218 137.946L19.1959 147.172C15.4656 150.902 15.4656 156.908 19.1959 160.64L39.3603 180.804C43.0905 184.534 49.096 184.534 52.8282 180.804L62.0541 171.578C66.5316 173.957 71.2634 175.87 76.1912 177.381V190.477C76.1912 195.753 80.4396 200 85.7143 200H114.286C119.562 200 123.809 195.752 123.809 190.477V177.381C128.713 175.871 133.414 173.945 137.871 171.578L147.097 180.804C150.827 184.534 156.833 184.534 160.565 180.804L180.804 160.64C184.534 156.909 184.534 150.904 180.804 147.172L171.503 137.871C173.867 133.412 175.876 128.715 177.381 123.809H190.477C195.753 123.809 200 119.56 200 114.286V85.7143C200 80.4379 195.752 76.1912 190.477 76.1912H177.381C175.875 71.2851 173.867 66.5882 171.503 62.1289L180.804 52.8282C184.534 49.0979 184.534 43.0925 180.804 39.3603L160.565 19.1959C156.835 15.4656 150.829 15.4656 147.097 19.1959L137.871 28.4218C133.415 26.0551 128.715 24.1283 123.811 22.619V9.5231C123.811 4.24666 119.562 0 114.287 0H85.7143ZM100.001 57.1437C123.671 57.1437 142.859 76.3315 142.859 100.001C142.859 123.671 123.671 142.859 100.001 142.859C76.3311 142.859 57.1433 123.671 57.1433 100.001C57.1433 76.3315 76.3311 57.1437 100.001 57.1437Z" fill="#373737"/>
</svg>
