<svg width="178" height="200" viewBox="0 0 178 200" fill="none" xmlns="http://www.w3.org/2000/svg">
<path d="M174.688 26.107L145.06 1.50305C142.339 -0.763053 138.296 -0.42932 135.982 2.2512L10.4161 147.549C9.69484 148.383 9.20505 149.382 8.97355 150.456L0.140895 192.144C-0.375836 194.591 0.552669 197.118 2.5335 198.646C3.69614 199.543 5.09566 200 6.50854 200C7.50431 200 8.50814 199.771 9.42861 199.306L47.1314 180.345C47.8768 179.971 48.5443 179.457 49.096 178.83L175.413 35.413C176.575 34.0942 177.154 32.361 177.011 30.609C176.877 28.8569 176.04 27.2341 174.686 26.1091L174.688 26.107ZM40.166 169.29L15.6778 181.602L21.3619 154.794L121.38 39.0535L141.078 54.7167L40.166 169.29ZM149.21 45.481L129.423 29.7476L141.655 15.5912L161.224 31.8386L149.21 45.481Z" fill="#73777B"/>
</svg>
