<svg width="672" height="654" viewBox="0 0 672 654" fill="none" xmlns="http://www.w3.org/2000/svg">
<path d="M671.985 289.31V351.866C672.284 367.982 668.04 383.864 659.752 397.688C651.464 411.516 639.456 422.733 625.104 430.057V212.677C639.221 219.887 651.067 230.856 659.34 244.381C667.612 257.901 671.991 273.453 671.986 289.308L671.985 289.31ZM0.00947465 289.31V351.866H0.014707C-0.283541 367.982 3.95987 383.864 12.2479 397.688C20.5359 411.516 32.5437 422.733 46.8962 430.057V212.677C32.7794 219.887 20.9331 230.856 12.6604 244.381C4.3881 257.901 0.00867569 273.453 0.0138997 289.308L0.00947465 289.31ZM578.222 211.12V492.613C578.222 515.422 569.17 537.298 553.049 553.43C536.928 569.562 515.068 578.621 492.276 578.621H338.504L262.556 644.303C255.556 650.481 246.566 653.921 237.238 654C231.508 653.597 225.951 651.89 220.986 648.994C214.163 645.957 208.376 640.999 204.321 634.721C200.272 628.448 198.131 621.122 198.173 613.651V578.621H179.729C156.936 578.621 135.076 569.562 118.955 553.43C102.835 537.298 93.7826 515.422 93.7826 492.613V211.12C93.7826 188.305 102.834 166.429 118.955 150.297C135.076 134.17 156.936 125.106 179.729 125.106H406.328V23.4574C406.328 15.0744 410.797 7.33055 418.049 3.14166C425.301 -1.04722 434.238 -1.04722 441.49 3.14166C448.741 7.33055 453.21 15.0747 453.21 23.4574V125.106H492.28C515.072 125.106 536.933 134.17 553.053 150.297C569.174 166.429 578.226 188.305 578.226 211.12H578.222ZM453.206 414.419C453.127 408.225 450.631 402.303 446.252 397.925C441.872 393.543 435.955 391.045 429.764 390.961H242.237C233.86 390.961 226.122 395.433 221.936 402.69C217.75 409.947 217.75 418.891 221.936 426.148C226.122 433.405 233.861 437.877 242.237 437.877H429.764C435.954 437.798 441.872 435.301 446.252 430.918C450.631 426.535 453.127 420.619 453.206 414.419ZM453.206 289.313C453.127 283.119 450.631 277.197 446.252 272.814C441.872 268.431 435.955 265.933 429.764 265.855H242.237C233.86 265.855 226.122 270.326 221.936 277.584C217.75 284.841 217.75 293.784 221.936 301.041C226.122 308.299 233.861 312.77 242.237 312.77H429.764C435.954 312.692 441.872 310.194 446.252 305.812C450.631 301.429 453.127 295.508 453.206 289.313Z" fill="#6061CF"/>
</svg>
