<svg width="135" height="200" viewBox="0 0 135 200" fill="none" xmlns="http://www.w3.org/2000/svg">
<path d="M67.0103 199.96C62.9991 199.96 59.1491 198.388 56.298 195.58C53.4452 192.774 51.8238 188.961 51.7821 184.972V152.601C51.7717 148.762 50.2334 145.083 47.5038 142.369C44.7741 139.654 41.0753 138.125 37.2146 138.114H14.5674C10.7035 138.114 6.99919 136.588 4.26618 133.87C1.53481 131.154 0 127.47 0 123.628V71.4793C0 68.8113 2.17468 66.6502 4.85602 66.6502H129.165C130.453 66.6502 131.688 67.159 132.598 68.0644C133.509 68.9698 134.02 70.1977 134.02 71.479V123.628C134.02 127.47 132.486 131.154 129.754 133.87C127.021 136.588 123.317 138.114 119.453 138.114H96.8057C92.9454 138.124 89.2465 139.654 86.5166 142.368C83.7867 145.083 82.2486 148.761 82.2382 152.6V184.548C82.3128 188.521 80.8162 192.367 78.0692 195.256C75.3239 198.144 71.5483 199.848 67.5545 200L67.0103 199.96ZM129.165 57.0284C130.821 57.0318 132.463 57.3181 134.021 57.8786V14.497C134.021 13.2157 133.509 11.9878 132.599 11.0824C131.688 10.177 130.453 9.66824 129.165 9.66824C122.672 9.85966 116.243 8.3541 110.519 5.30336C103.484 1.66108 95.6424 -0.158293 87.7155 0.0107968C79.8023 -0.153035 71.9722 1.66638 64.9524 5.30336C59.2244 8.34549 52.7972 9.85114 46.3061 9.66824C39.8012 9.85276 33.362 8.34893 27.6198 5.30336C20.6 1.66625 12.7716 -0.152996 4.85673 0.0107968C2.17562 0.0107968 0.000711299 2.17166 0.000711299 4.8398V57.8406C1.55803 57.2801 3.20032 56.9921 4.85673 56.9903L129.165 57.0284Z" fill="#616161"/>
</svg>
