<svg width="233" height="200" viewBox="0 0 233 200" fill="none" xmlns="http://www.w3.org/2000/svg">
<path d="M144.944 0H87.1822C39.1375 0 0 39.0746 0 87.0389C0 110.482 9.44796 131.771 24.8321 147.4C28.88 151.442 30.5013 157.101 29.6896 162.761L25.3705 192.133C24.5609 197.522 29.9588 201.565 35.0874 199.409L88.5304 174.618C90.9592 173.541 93.6593 173.001 96.357 173.001H146.561C193.8 172.729 232.129 134.195 232.129 87.0402C232.129 39.0744 192.991 0.00125189 144.946 0.00125189L144.944 0ZM59.3811 101.321C49.6642 101.321 41.8376 93.5071 41.8376 83.8062C41.8376 74.1053 49.6642 66.2916 59.3811 66.2916C69.098 66.2916 76.9245 74.1053 76.9245 83.8062C76.9264 93.5052 69.098 101.321 59.3811 101.321ZM116.063 101.321C106.346 101.321 98.5196 93.5071 98.5196 83.8062C98.5196 74.1053 106.346 66.2916 116.063 66.2916C125.78 66.2916 133.606 74.1053 133.606 83.8062C133.606 93.5052 125.78 101.321 116.063 101.321ZM172.745 101.321C163.028 101.321 155.202 93.5071 155.202 83.8062C155.202 74.1053 163.028 66.2916 172.745 66.2916C182.462 66.2916 190.288 74.1053 190.288 83.8062C190.288 93.5052 182.462 101.321 172.745 101.321Z" fill="#616161"/>
</svg>
