<svg width="236" height="200" viewBox="0 0 236 200" fill="none" xmlns="http://www.w3.org/2000/svg">
<path d="M217.524 117.692H211.646V105.934C211.646 96.5784 207.93 87.6061 201.314 80.9921C194.698 74.3761 185.726 70.6597 176.372 70.6597H129.338V43.8809C135.359 40.4066 139.532 34.444 140.739 27.5997C141.946 20.7535 140.064 13.7243 135.596 8.39935C131.127 3.07492 124.531 0 117.581 0C110.63 0 104.034 3.07472 99.5654 8.39935C95.097 13.7238 93.215 20.7535 94.4218 27.5997C95.6285 34.444 99.8017 40.4064 105.823 43.8809V70.6597H58.7891C49.4354 70.6597 40.4631 74.3761 33.8471 80.9921C27.2311 87.6061 23.5147 96.5784 23.5147 105.934V117.692H17.637C11.3359 117.692 5.51314 121.054 2.36213 126.51C-0.787376 131.969 -0.787376 138.691 2.36213 144.147C5.5136 149.606 11.3364 152.966 17.637 152.966H23.5147V164.726C23.5147 174.079 27.2311 183.052 33.8471 189.668C40.4631 196.284 49.4354 200 58.7891 200H176.374C185.728 200 194.7 196.284 201.316 189.668C207.932 183.052 211.648 174.079 211.648 164.726V152.966H217.528H217.526C223.827 152.966 229.65 149.606 232.801 144.147C235.95 138.691 235.95 131.969 232.801 126.51C229.65 121.054 223.827 117.692 217.526 117.692H217.524ZM94.0636 135.329C94.0636 140.008 92.2053 144.494 88.8984 147.801C85.5914 151.108 81.1052 152.966 76.4263 152.966C71.7494 152.966 67.2631 151.108 63.9563 147.801C60.6474 144.494 58.7891 140.008 58.7891 135.329C58.7891 130.652 60.6473 126.166 63.9563 122.859C67.2633 119.55 71.7495 117.692 76.4263 117.692C81.1053 117.692 85.5916 119.55 88.8984 122.859C92.2053 126.166 94.0636 130.652 94.0636 135.329ZM176.371 135.329C176.371 140.008 174.513 144.494 171.204 147.801C167.897 151.108 163.411 152.966 158.734 152.966C154.055 152.966 149.568 151.108 146.262 147.801C142.955 144.494 141.096 140.008 141.096 135.329C141.096 130.652 142.955 126.166 146.262 122.859C149.569 119.55 154.055 117.692 158.734 117.692C163.411 117.692 167.897 119.55 171.204 122.859C174.513 126.166 176.371 130.652 176.371 135.329Z" fill="#616161"/>
</svg>
