<svg width="299" height="202" viewBox="0 0 299 202" fill="none" xmlns="http://www.w3.org/2000/svg">
<path d="M289.977 74.1511L289.976 74.15C274.235 51.4966 253.247 32.9889 228.801 20.2074C204.356 7.42579 177.181 0.75 149.595 0.75C122.01 0.75 94.8349 7.42579 70.3896 20.2074C45.9444 32.9889 24.9555 51.4964 9.21499 74.1498C3.70419 82.0641 0.75 91.4765 0.75 101.12C0.75 110.764 3.70419 120.177 9.21499 128.091L9.2151 128.091C24.9661 150.677 45.94 169.123 70.3522 181.861C94.7644 194.598 121.892 201.25 149.428 201.25C176.963 201.25 204.091 194.598 228.503 181.861C252.915 169.123 273.889 150.677 289.64 128.092C295.2 120.212 298.213 110.818 298.273 101.175C298.334 91.5307 295.438 82.0997 289.977 74.1511ZM278.499 120.092C264.036 140.882 244.76 157.864 222.315 169.592C199.869 181.32 174.92 187.445 149.595 187.445C124.271 187.445 99.3214 181.32 76.8759 169.592C54.4303 157.864 35.1543 140.882 20.6918 120.092C16.8267 114.521 14.7555 107.902 14.7555 101.12C14.7555 94.3393 16.8268 87.7198 20.692 82.1481C35.1545 61.3592 54.4304 44.3766 76.8759 32.6488C99.3214 20.9209 124.271 14.7957 149.595 14.7957C174.92 14.7957 199.869 20.9209 222.315 32.6488C244.76 44.3767 264.036 61.3594 278.499 82.1484C282.364 87.7201 284.435 94.3394 284.435 101.12C284.435 107.902 282.364 114.521 278.499 120.092Z" fill="white" stroke="white" stroke-width="0.5"/>
<path d="M149.573 33.4636C136.192 33.4636 123.112 37.4315 111.986 44.8655C100.86 52.2995 92.1886 62.8658 87.0679 75.2281C81.9473 87.5904 80.6075 101.194 83.218 114.317C85.8284 127.441 92.2719 139.496 101.734 148.958C111.195 158.419 123.25 164.863 136.374 167.473C149.498 170.084 163.101 168.744 175.463 163.623C187.826 158.503 198.392 149.831 205.826 138.705C213.26 127.58 217.228 114.499 217.228 101.118C217.228 83.1753 210.1 65.967 197.412 53.2793C184.724 40.5915 167.516 33.4636 149.573 33.4636ZM149.573 154.859C138.944 154.859 128.554 151.708 119.716 145.802C110.878 139.897 103.99 131.504 99.9227 121.684C95.8552 111.864 94.7909 101.059 96.8645 90.6341C98.9381 80.2094 104.056 70.6337 111.572 63.1179C119.088 55.6021 128.664 50.4838 139.089 48.4101C149.513 46.3365 160.319 47.4008 170.139 51.4683C179.958 55.5358 188.352 62.424 194.257 71.2616C200.162 80.0993 203.314 90.4895 203.314 101.118C203.314 115.371 197.652 129.041 187.573 139.119C177.495 149.197 163.826 154.859 149.573 154.859Z" fill="white" stroke="white" stroke-width="0.5"/>
</svg>
